<svg xmlns="http://www.w3.org/2000/svg" viewBox="0 0 70.28 73.36"><defs><style>.cls-1{fill:#fff;}</style></defs><g id="Calque_2" data-name="Calque 2"><g id="Calque_1-2" data-name="Calque 1"><circle class="cls-1" cx="41.41" cy="12.25" r="12.25"/><circle class="cls-1" cx="12.65" cy="35.32" r="8.66"/><circle class="cls-1" cx="11.37" cy="59.51" r="11.37"/><path class="cls-1" d="M66.38,61A25,25,0,0,1,56.21,71.2a18.5,18.5,0,0,1-14.45,1.21c-5.21-1.86-9.1-5.75-9.48-11.09a11.07,11.07,0,0,1,.91-4.92l.14-.36c.07-.14.12-.27.19-.41a13.2,13.2,0,0,1,2.77-4.12l0,0,1.48-1.36h0l.22-.2,1.52-1.41s.05,0,.06,0l0,0c1-1,1.3-2.79,1.3-4.55,0-.27,0-.54,0-.8a2.3,2.3,0,0,0,0-.28c0-.11,0-.2,0-.22-.29-1.57-.61-3.13-.77-4.71a10.82,10.82,0,0,1,10.2-12c5.31-.39,10.73,2.62,14.06,6.31a22.49,22.49,0,0,1,5.86,13.51C70.65,51,69,56.32,66.38,61Z"/></g></g></svg>