<svg xmlns="http://www.w3.org/2000/svg" viewBox="0 0 44.83 70.35"><defs><style>.cls-1{fill:#7BA3D7;}</style></defs><g id="Calque_2" data-name="Calque 2"><g id="Calque_1-2" data-name="Calque 1"><polygon class="cls-1" points="11.22 62.82 14.63 62.82 12.92 58.18 11.22 62.82"/><path class="cls-1" d="M20.72,52.48H5.11A1.12,1.12,0,0,0,4,53.61V69.22a1.13,1.13,0,0,0,1.13,1.13H20.72a1.13,1.13,0,0,0,1.13-1.13V53.61A1.12,1.12,0,0,0,20.72,52.48ZM17.81,66.57a.29.29,0,0,1-.21.09H16.29a.41.41,0,0,1-.31-.1.5.5,0,0,1-.12-.19l-.71-1.83H10.7L10,66.37a.43.43,0,0,1-.13.19.38.38,0,0,1-.3.1H8.25A.33.33,0,0,1,8,66.57a.32.32,0,0,1-.09-.23.35.35,0,0,1,0-.13l3.61-9.68a.62.62,0,0,1,.17-.26.57.57,0,0,1,.36-.11h1.63a.52.52,0,0,1,.35.11.76.76,0,0,1,.18.26l3.61,9.68a.69.69,0,0,1,0,.13A.32.32,0,0,1,17.81,66.57Z"/><path class="cls-1" d="M35.62,56l-2.14-1-1.13,2.47,2.14,1a1.62,1.62,0,0,0,1.24.16,1.32,1.32,0,0,0,.78-.74,1.28,1.28,0,0,0,.05-1.06A1.73,1.73,0,0,0,35.62,56Z"/><path class="cls-1" d="M34,60l-2.28-1-1.27,2.76,2.27,1a1.62,1.62,0,0,0,1.31.11,1.6,1.6,0,0,0,.9-2A1.69,1.69,0,0,0,34,60Z"/><path class="cls-1" d="M44.18,54,30,47.47a1.17,1.17,0,0,0-.58-.08A1.13,1.13,0,0,0,30.13,46l-5-14.78a1.13,1.13,0,0,0-1.44-.71l-14.78,5a1.14,1.14,0,0,0-.71,1.44l5,14.78a1.13,1.13,0,0,0,1.43.71l14.31-4.85a1.08,1.08,0,0,0-.45.47L22,62.21a1.13,1.13,0,0,0,.56,1.5l14.17,6.53a1.13,1.13,0,0,0,1.51-.55l6.53-14.18A1.13,1.13,0,0,0,44.18,54ZM24,43.23a3.44,3.44,0,0,1-.48,1.33,4.43,4.43,0,0,1-1.07,1.15,5.94,5.94,0,0,1-1.65.84,5.19,5.19,0,0,1-2.39.3A3.37,3.37,0,0,1,16.58,46a4.79,4.79,0,0,1-1.24-1.88c-.14-.39-.29-.8-.44-1.25s-.29-.87-.42-1.28a4.88,4.88,0,0,1-.15-2.25,3.47,3.47,0,0,1,.95-1.8,5.22,5.22,0,0,1,2.07-1.22A5.67,5.67,0,0,1,19.17,36a4.24,4.24,0,0,1,1.55.26,3.42,3.42,0,0,1,1.19.76,3.26,3.26,0,0,1,.75,1.19.23.23,0,0,1,0,.24.34.34,0,0,1-.19.16l-1.35.45a.39.39,0,0,1-.28,0,.5.5,0,0,1-.23-.21,2.07,2.07,0,0,0-1.22-1,2.81,2.81,0,0,0-1.49.13,2.31,2.31,0,0,0-1.34,1,2.56,2.56,0,0,0,0,2c.23.79.5,1.58.81,2.39a2.53,2.53,0,0,0,1.2,1.54,2.21,2.21,0,0,0,1.7,0,2.68,2.68,0,0,0,1.26-.81,2.08,2.08,0,0,0,.35-1.54.38.38,0,0,1,.28-.48l1.35-.45a.31.31,0,0,1,.25,0,.25.25,0,0,1,.15.18A3.2,3.2,0,0,1,24,43.23ZM38.49,58.75a2.36,2.36,0,0,1-.6.82,2.45,2.45,0,0,1-.74.43,2.89,2.89,0,0,1-.7.14A2.72,2.72,0,0,1,37,61.39a2.59,2.59,0,0,1-.22,1.55,3.25,3.25,0,0,1-1,1.29,2.72,2.72,0,0,1-1.55.49,4.31,4.31,0,0,1-2-.46l-4.06-1.87a.34.34,0,0,1-.19-.2.39.39,0,0,1,0-.28l4.09-8.86a.34.34,0,0,1,.21-.2.29.29,0,0,1,.27,0l4,1.82a4.53,4.53,0,0,1,1.65,1.16,2.49,2.49,0,0,1,.6,1.39A3,3,0,0,1,38.49,58.75Z"/><path class="cls-1" d="M9.63,29.64a7.79,7.79,0,0,0,5.21-5.05c1.59-4.75-1-6.95-3.3-8.89-1.44-1.22-2.81-2.38-3.28-4.09A6.89,6.89,0,0,1,8.8,6.14a5.85,5.85,0,0,1,3.74-2.72.5.5,0,0,0,.38-.6.49.49,0,0,0-.6-.37A6.91,6.91,0,0,0,7.94,5.62a7.8,7.8,0,0,0-.64,6.26c.55,2,2.1,3.32,3.6,4.59,2.34,2,4.36,3.7,3,7.8a6.84,6.84,0,0,1-4.56,4.41,9.44,9.44,0,0,1-8.53-2,.51.51,0,0,0-.71.09.51.51,0,0,0,.09.7A11.27,11.27,0,0,0,7,30,8.73,8.73,0,0,0,9.63,29.64Z"/><path class="cls-1" d="M21.57,14.9a2.32,2.32,0,0,0,.18.39,2.16,2.16,0,0,0,.17.34L34.2,34.47a1.62,1.62,0,0,0,1,.72A1.51,1.51,0,0,0,36.38,35a6.05,6.05,0,0,0,6.56-4.28,1.58,1.58,0,0,0,.4-2.21L31.07,9.67s0,0,0,0a1.92,1.92,0,0,0-.52-.74L20.81.65A2.12,2.12,0,0,0,18.24.29a2.1,2.1,0,0,0-.64,2.52Zm-1.7-8.38,1.76-1.19,1.76-1.18L29.12,9a1,1,0,0,0-.23.12l-6.57,4.27-.14.12Z"/></g></g></svg>