<svg xmlns="http://www.w3.org/2000/svg" viewBox="0 0 64.67 69.45"><defs><style>.cls-1{fill:#7BA3D7;}</style></defs><g id="Calque_2" data-name="Calque 2"><g id="Calque_1-2" data-name="Calque 1"><path class="cls-1" d="M37.19,62.75v-.08A2.68,2.68,0,0,0,34.52,60h-1v-.16a1.59,1.59,0,0,0-1.65-1.52l-22.49.22A1.68,1.68,0,0,0,8.21,59a1.47,1.47,0,0,0-.46,1.09,6.06,6.06,0,0,0,.07,7.84,1.59,1.59,0,0,0,1.65,1.52L32,69.24a1.59,1.59,0,0,0,1.61-1.47h1a2.68,2.68,0,0,0,2.67-2.67V65h1.42c.75,0,1.92-1.13,1.92-1.13s-1.17-1.14-1.92-1.14Zm-1,2.35a1.67,1.67,0,0,1-1.67,1.67h-1L33.51,61h1a1.67,1.67,0,0,1,1.67,1.67Z"/><path class="cls-1" d="M46.52,25.23,33.08,14.87a1.2,1.2,0,0,0-1.54,0l-.17-.13a2.66,2.66,0,0,0-3.43.1l-.78-.61A3.18,3.18,0,0,0,25.5,14s.16,1.22.6,1.57l.79.62a2.54,2.54,0,0,0-.3,1.56,2.63,2.63,0,0,0,1,1.78l.19.15a1.2,1.2,0,0,0,.27,1.67L41.49,31.76a1.3,1.3,0,0,0,.9.26,1.12,1.12,0,0,0,.78-.43,4.71,4.71,0,0,0,2.74-1.77,4.67,4.67,0,0,0,.87-2.91A1.2,1.2,0,0,0,46.52,25.23ZM27.58,17.67a1.66,1.66,0,0,1,.35-1.23l.47-.6a1.65,1.65,0,0,1,1.12-.62h.2a1.69,1.69,0,0,1,1,.35l.15.12-2.51,3.25-.18-.14A1.7,1.7,0,0,1,27.58,17.67Z"/><path class="cls-1" d="M24.09,13.62a14.57,14.57,0,0,0-1.31.66,17.35,17.35,0,0,0-4.65,3.82c-.79.88-1.37,1.51-2.07,1.61-1.29.17-3-1.38-4.87-4.49a.49.49,0,0,0-.68-.17.5.5,0,0,0-.17.69c2,3.35,3.84,5,5.51,5l.35,0c1.06-.15,1.77-.93,2.67-1.92a16.14,16.14,0,0,1,4.39-3.63c.51-.28.94-.48,1.24-.62a.5.5,0,1,0-.41-.91Z"/><path class="cls-1" d="M52.67,58.55H47.15v8.56H42.53a1,1,0,0,0,0,2H52.67a4.22,4.22,0,0,0,2.61-1.44A5.75,5.75,0,0,0,57,63.59C56.93,60.91,54.25,58.55,52.67,58.55Zm0,8.56h-3.5V60.55h3.51A3.87,3.87,0,0,1,55,63.65,4.09,4.09,0,0,1,52.65,67.11Z"/><path class="cls-1" d="M55.17,0H9.5A9.51,9.51,0,0,0,0,9.5V40.37a9.51,9.51,0,0,0,9.5,9.5H55.17a9.51,9.51,0,0,0,9.5-9.5V9.5A9.51,9.51,0,0,0,55.17,0Zm3.5,40.37a3.5,3.5,0,0,1-3.5,3.5H9.5A3.5,3.5,0,0,1,6,40.37V9.5A3.5,3.5,0,0,1,9.5,6H55.17a3.5,3.5,0,0,1,3.5,3.5Z"/></g></g></svg>