<svg xmlns="http://www.w3.org/2000/svg" viewBox="0 0 54.57 69.78"><defs><style>.cls-1{fill:white;}</style></defs><g id="Calque_2" data-name="Calque 2"><g id="Calque_1-2" data-name="Calque 1"><ellipse class="cls-1" cx="18.6" cy="50.44" rx="18.6" ry="19.35"/><circle class="cls-1" cx="18.6" cy="12.25" r="12.25"/><path class="cls-1" d="M42.79,39.87a2,2,0,0,1-2-2c0-3.48,0-12.74,6.94-12.74s6.84,6.93,6.84,10.27a2,2,0,0,1-4,0c0-6.27-1.32-6.27-2.84-6.27-.8,0-2.94,0-2.94,8.74A2,2,0,0,1,42.79,39.87Z"/><path class="cls-1" d="M42.79,69.78a2,2,0,0,1-2-2v-30a2,2,0,0,1,4,0v30A2,2,0,0,1,42.79,69.78Z"/></g></g></svg>