<svg xmlns="http://www.w3.org/2000/svg" viewBox="0 0 48.11 73.19"><defs><style>.cls-1{fill:#7BA3D7;}</style></defs><g id="Calque_2" data-name="Calque 2"><g id="Calque_1-2" data-name="Calque 1"><path class="cls-1" d="M6.1,17.87l.12-.06a104.5,104.5,0,0,0,10.43-6.54q3.69-2.62,7-5.48,3.27,2.85,7,5.48A104.5,104.5,0,0,0,41,17.81l.11.06c4,2.14,8-.18,5.12-3l-.08-.07a86.83,86.83,0,0,0-9-7.37A101.61,101.61,0,0,0,26.71.93l-.17-.1c-.2-.1-.39-.19-.59-.27A4,4,0,0,0,23.66,0h-.1a4,4,0,0,0-2.29.56,6.28,6.28,0,0,0-.59.27l-.17.1A101.61,101.61,0,0,0,10.08,7.47a87,87,0,0,0-9,7.37L1,14.91C-1.91,17.69,2.11,20,6.1,17.87Z"/><rect class="cls-1" x="10.39" y="36.72" width="8.06" height="8.06" rx="1.13"/><rect class="cls-1" x="30.05" y="36.72" width="8.06" height="8.06" rx="1.13"/><path class="cls-1" d="M38.61,21.39H9.89a9.51,9.51,0,0,0-9.5,9.5v32.8a9.52,9.52,0,0,0,9.5,9.5H38.61a9.52,9.52,0,0,0,9.5-9.5V30.89A9.52,9.52,0,0,0,38.61,21.39Zm3.5,42.3a3.5,3.5,0,0,1-3.5,3.5H30.09V52A1.13,1.13,0,0,0,29,50.83H19.54A1.12,1.12,0,0,0,18.41,52V67.19H9.89a3.5,3.5,0,0,1-3.5-3.5V30.89a3.5,3.5,0,0,1,3.5-3.5H38.61a3.5,3.5,0,0,1,3.5,3.5Z"/></g></g></svg>