<svg xmlns="http://www.w3.org/2000/svg" viewBox="0 0 135.86 107.69"><defs><style>.cls-1{fill:#fff;}</style></defs><g id="Calque_2" data-name="Calque 2"><g id="Calque_1-2" data-name="Calque 1"><ellipse class="cls-1" cx="44.55" cy="88.38" rx="18.6" ry="19.35" transform="translate(-19.53 12.95) rotate(-13.6)"/><circle class="cls-1" cx="35.57" cy="51.26" r="12.25"/><ellipse class="cls-1" cx="91.4" cy="72.38" rx="19.35" ry="18.6" transform="translate(2.91 148.29) rotate(-79)"/><circle class="cls-1" cx="98.68" cy="34.89" r="12.25"/><path class="cls-1" d="M120.82,36.47c-5.88,13.18-12.21,21.82-8.2,23.76C116.41,62.06,124.09,52,130,38.81s8-24.76,3.4-26.8S126.7,23.28,120.82,36.47Z"/><path class="cls-1" d="M80.29,27.46c0,14.43,2.27,24.9-2.19,25C73.89,52.63,71,40.31,71,25.87S73.76,0,78.78,0,80.29,13,80.29,27.46Z"/><path class="cls-1" d="M52.91,44.07C55.2,58.33,54.62,69,59,68.45c4.17-.54,5.1-13.16,2.82-27.41S55,15.93,50.06,16.72,50.63,29.82,52.91,44.07Z"/><path class="cls-1" d="M13.91,55.14C19,68.67,24.76,77.67,20.64,79.36c-3.9,1.6-10.94-8.91-16-22.44s-6.47-25.2-1.76-27S8.85,41.62,13.91,55.14Z"/></g></g></svg>