<svg xmlns="http://www.w3.org/2000/svg" viewBox="0 0 86.09 69.78"><defs><style>.cls-1{fill:#E8917B;}</style></defs><g id="Calque_2" data-name="Calque 2"><g id="Calque_1-2" data-name="Calque 1"><path class="cls-1" d="M84.73,19.75c-1.07-.64-2.15-1.25-3.25-1.84a86.85,86.85,0,0,0-11.84-5.18A87.93,87.93,0,0,0,57.18,9.29c-1.25-.24-2.52-.45-3.79-.64a2.76,2.76,0,0,0-3.15,2.84,24.22,24.22,0,0,0-5.33-.66,2.52,2.52,0,0,0-.18-4.21c-.82-.49-1.64-.94-2.48-1.37A48.77,48.77,0,0,0,33.73,1.9a50.85,50.85,0,0,0-9-1.74C23.88.09,23,0,22.13,0a2.56,2.56,0,0,0-1.38,4.75c.76.45,1.52.87,2.29,1.27a49.08,49.08,0,0,0,8.52,3.35,48.35,48.35,0,0,0,9,1.75l.41,0C29.34,13.06,19.29,23.73,16.2,37.68a1.86,1.86,0,0,0,0,.52c-8.45,3.53-14.47,9.74-15.8,13a3.4,3.4,0,0,0,.12,3.34c1.43,2.12,3.85,1.14,6.93-.1,3.94-1.6,9.9-4,15.79-2.21,4.93,1.51,7.37,5.3,9.73,9,2.48,3.85,5,7.83,10.24,8.48a11.32,11.32,0,0,0,1.43.09c4,0,8.59-2,12.26-5.4a17,17,0,0,0,4.81-7.23,1.59,1.59,0,0,0,.39-.1c6.54-2.3,10.88-5.85,12.55-10.27,2.32-6.15,0-14.81-5.92-22.61a39.86,39.86,0,0,0-3.4-3.87l1.47.55A88.94,88.94,0,0,0,79.22,24.3c1.22.23,2.44.44,3.68.62A2.8,2.8,0,0,0,84.73,19.75ZM53.87,61.17c-3.14,2.91-7.11,4.55-10.15,4.17s-4.66-2.72-7.1-6.51S31,50,24.48,48a19.36,19.36,0,0,0-5.69-.83c-4.87,0-9.29,1.66-12.4,2.91a32.89,32.89,0,0,1,16.76-9.54C34.18,38.2,46.55,42,53.07,47c2.93,2.24,4.61,4.66,4.72,6.81S56.44,58.77,53.87,61.17ZM70.5,45.23c-1.09,2.87-4,5.31-8.48,7.13-.57-3.09-2.72-6.13-6.28-8.86-7.32-5.59-21.18-9.87-33.52-7.21-.41.09-.8.2-1.2.3,3.19-11.32,11.5-19.75,20.91-21.15a10.47,10.47,0,0,0-1,2.3,10.7,10.7,0,0,0-.23,4.39A13.7,13.7,0,0,0,41.21,24,3,3,0,0,0,46,25.31,13.35,13.35,0,0,0,47.37,24a10.38,10.38,0,0,0,2.05-3.89,10.13,10.13,0,0,0,.26-4.2c6.44,1.7,12,6.36,15.52,11C70.11,33.25,72.23,40.63,70.5,45.23Z"/><path class="cls-1" d="M46.05,6.54a5.49,5.49,0,0,0,4.81,1.32A7.25,7.25,0,0,0,52,7.38a2.91,2.91,0,0,0,1.44-1.65A2.82,2.82,0,0,0,53,3.58a7,7,0,0,0-.72-1,5.5,5.5,0,0,0-4.8-1.33,8.13,8.13,0,0,0-1.13.49A2.82,2.82,0,0,0,45,3.4a2.84,2.84,0,0,0,.39,2.15A7.61,7.61,0,0,0,46.05,6.54Z"/></g></g></svg>