<svg xmlns="http://www.w3.org/2000/svg" viewBox="0 0 110.35 69.63"><defs><style>.cls-1{fill:#E8917B;}</style></defs><g id="Calque_2" data-name="Calque 2"><g id="Calque_1-2" data-name="Calque 1"><ellipse class="cls-1" cx="86.48" cy="54.57" rx="14.48" ry="15.07"/><path class="cls-1" d="M86.48,34.37a9.54,9.54,0,1,0-9.54-9.54A9.54,9.54,0,0,0,86.48,34.37Z"/><ellipse class="cls-1" cx="23.04" cy="56.53" rx="12.59" ry="13.1"/><path class="cls-1" d="M23,39a8.3,8.3,0,1,0-8.29-8.3A8.31,8.31,0,0,0,23,39Z"/><path class="cls-1" d="M9.07,23c-2-12.16-.75-23.6-5-22.92S-.94,10.72,1,22.87,7.08,45,10.61,44.33C14.34,43.61,11,35.11,9.07,23Z"/><path class="cls-1" d="M75.24,41c2.72-.5.36-6.7-1-15.55s-.4-17.16-3.48-16.69c-1.27.19-2.12,1.56-2.59,3.72C67.32,14.73,66.4,18,65,21.27c-2.73,6.4-5.72,10.61-3.77,11.52,1.6.74,4.55-2.88,7.08-8,0,.18.05.36.08.54C69.74,34.14,72.68,41.42,75.24,41Z"/><ellipse class="cls-1" cx="54.17" cy="43.84" rx="9.79" ry="10.19"/><path class="cls-1" d="M54.17,30.18a6.45,6.45,0,1,0-6.45-6.45A6.45,6.45,0,0,0,54.17,30.18Z"/><path class="cls-1" d="M46.44,34.76c2-.88-1-5.11-3.67-11.51C40.16,17,39.28,10.76,37.17,11.3a.45.45,0,0,1-.11,0c-3.07-.46-2.12,7.82-3.46,16.65s-3.68,15-1,15.52c2.56.47,5.48-6.8,6.81-15.63.05-.29.08-.57.12-.86C42,32,44.87,35.48,46.44,34.76Z"/><path class="cls-1" d="M106.46.14c-4-.65-2.88,10.24-4.74,21.8s-5,19.66-1.47,20.34c3.36.65,7.28-8.84,9.13-20.41S110.49.79,106.46.14Z"/></g></g></svg>