<svg xmlns="http://www.w3.org/2000/svg" viewBox="0 0 50.94 69.78"><defs><style>.cls-1{fill:white;}</style></defs><g id="Calque_2" data-name="Calque 2"><g id="Calque_1-2" data-name="Calque 1"><path class="cls-1" d="M41.15,41.52a8.15,8.15,0,0,0,3.34-7c0-7.85-8.45-9.28-17.07-9.87,0-.36-.07-.71-.11-1.07-.24-1.8-.51-3.59-.82-5.39a3.5,3.5,0,0,0-6.91,0c-.31,1.8-.57,3.59-.81,5.39l-.06.53c-8.32-.67-13.53-2-13.53-6.85A9.77,9.77,0,0,1,9.52,9c5-3.61,14-4.59,20.84-2.28A2.59,2.59,0,0,0,32,1.77C24.79-.66,13.7-.42,6.5,4.76A14.89,14.89,0,0,0,0,17.26c0,9.26,9.09,11.27,18.18,12q-.27,3.15-.4,6.3c-4.2-.47-9.84-.44-13.34,2.28a8.33,8.33,0,0,0-3.2,6.87,8.3,8.3,0,0,0,2.6,6.4C7,54,12.3,54.24,18,53.9c.19,2.56.42,5.11.75,7.67.23,1.77.49,3.53.79,5.3a3.51,3.51,0,0,0,6.91,0c.3-1.77.56-3.53.8-5.3.36-2.83.62-5.66.81-8.5,4.22-.28,8.28-.28,9.71,1a1.9,1.9,0,0,1,.54,1.56,2.7,2.7,0,0,1-.63,2,3.15,3.15,0,0,1-2,.6,2.59,2.59,0,0,0-.47,5.15,5.15,5.15,0,0,0,.6,0,8.12,8.12,0,0,0,5.38-1.94,7.56,7.56,0,0,0,2.33-5.87,7,7,0,0,0-2.22-5.38c-2.77-2.52-7.53-2.75-12.94-2.41q.09-2.37.09-4.74C32.66,43.78,37.83,43.9,41.15,41.52ZM7.33,47.3a3.17,3.17,0,0,1-.92-2.58,3.13,3.13,0,0,1,1.2-2.78c2-1.56,6.28-1.63,10-1.17,0,.6,0,1.2,0,1.8,0,2,.06,4.11.14,6.16C13.3,49,9.06,48.88,7.33,47.3ZM27.94,29.89c7,.53,11.37,1.48,11.37,4.63a3,3,0,0,1-1.17,2.79c-2,1.4-6,1.23-9.74.55C28.32,35.2,28.16,32.54,27.94,29.89Z"/><path class="cls-1" d="M43.52,0C39.29-.18,35.75,2,35.62,5S38.81,10.4,43,10.59s7.9-4.94,7.9-4.94S47.75.2,43.52,0Z"/></g></g></svg>