<svg xmlns="http://www.w3.org/2000/svg" viewBox="0 0 80.72 57.88"><defs><style>.cls-1{fill:#E8917B;}</style></defs><g id="Calque_2" data-name="Calque 2"><g id="Calque_1-2" data-name="Calque 1"><path class="cls-1" d="M31.64,16.43,16.24,1a3.52,3.52,0,0,0-5,0L1,11.24a3.52,3.52,0,0,0,0,5l15.39,15.4a3.55,3.55,0,0,0,5,0L31.64,21.43A3.52,3.52,0,0,0,31.64,16.43Zm-2.11,2.88L19.32,29.51a.54.54,0,0,1-.39.17.59.59,0,0,1-.38-.17L3.15,14.11A.54.54,0,0,1,3,13.74a.53.53,0,0,1,.15-.38L13.36,3.15A.52.52,0,0,1,13.74,3a.48.48,0,0,1,.37.16l15.42,15.4a.61.61,0,0,1,.14.38A.58.58,0,0,1,29.53,19.31Z"/><path class="cls-1" d="M57.68,41.64l-2.21-2.21-4.83-4.82s0,0,0,0L42.08,26s0,0,0,0l-2.7-2.71a3.56,3.56,0,0,0-5,0L24.13,33.5a3.57,3.57,0,0,0,0,5l3,3L40.26,54.62l2.23,2.24a3.47,3.47,0,0,0,2.5,1,3.53,3.53,0,0,0,2.5-1L57.68,46.65A3.53,3.53,0,0,0,57.68,41.64Zm-2.11,2.88L45.36,54.74a.55.55,0,0,1-.37.14.55.55,0,0,1-.38-.14L26.27,36.39a.53.53,0,0,1,0-.76l10.2-10.2a.58.58,0,0,1,.38-.16.6.6,0,0,1,.38.16L55.57,43.76a.54.54,0,0,1,.16.38A.49.49,0,0,1,55.57,44.52Z"/><path class="cls-1" d="M56.89,35,46.8,24.9a2.09,2.09,0,0,0-3,0L42.4,26.31l0,0-2.11,2.11-4.13,4.11L29.3,39.43l-2.13,2.12-1.12,1.12a2.1,2.1,0,0,0,0,3l10.1,10.1a2.09,2.09,0,0,0,3,0l3.24-3.24,11-11,2.12-2.12L56.89,38A2.11,2.11,0,0,0,56.89,35ZM40.64,28.85,47.83,36l-2,2-7.19-7.18Z"/><rect class="cls-1" x="52.97" y="7.09" width="25.86" height="18.51" rx="2.11" transform="translate(7.75 51.39) rotate(-45)"/><path class="cls-1" d="M50.64,34.61s0,0,0,0a1.63,1.63,0,0,0-.27-.33l-7.92-7.92h0a1.35,1.35,0,0,0-.32-.27s0,0,0,0a2.55,2.55,0,0,0-3.13.31l-.39.41-2.38,2.35a2.51,2.51,0,0,0,0,3.49v0l7.93,7.9a2.44,2.44,0,0,0,3.5,0L50,38.14l.39-.4a2.45,2.45,0,0,0,.3-3.13ZM45.83,38l-7.19-7.18,2-2,0,0L47.85,36l0,0Z"/></g></g></svg>