<svg xmlns="http://www.w3.org/2000/svg" viewBox="0 0 91.81 73.28"><defs><style>.cls-1{fill:#E8917B;}</style></defs><g id="Calque_2" data-name="Calque 2"><g id="Calque_1-2" data-name="Calque 1"><path class="cls-1" d="M76.71,31.75A42.5,42.5,0,0,0,76.23,21c4.41-.62,7.67-2.25,7.62-4.41-.06-2.93-4.6-1.44-10.85-1.44s-11.91-2.31-11.91,1c0,3.13,4.47,4.93,10.28,5.11-.27,2.47-.35,5.85-.69,9.74a20.09,20.09,0,0,0-14.39,6.84c-3.79-2.47-8-5.23-12.13-8.26-10.84-7.9-18.87-15-23.19-17C27.46,7.72,31.75,2.57,30.28.59c-1.74-2.36-6.54,2.78-14.34,8.18S-.21,17.14,1.67,19.86c1.64,2.36,7.33.55,13.94-3.53-.87,3.31-1,8.69-.41,14.54,0,.28.06.55.1.82A21.06,21.06,0,0,0,0,52.13C0,63.79,9.18,73.28,20.47,73.28s20.46-9.49,20.46-21.15c0-11.33-8.68-20.59-19.53-21.1-.09-.61-.16-1.23-.23-1.85-.45-4.2-.55-7.9-.78-10.71,4,4.79,11.76,11.62,21,18.33,3.84,2.8,7.56,5.32,11,7.45a21.69,21.69,0,0,0-1.49,7.88c0,11.66,9.18,21.15,20.47,21.15s20.46-9.49,20.46-21.15A21,21,0,0,0,76.71,31.75ZM33.93,52.13c0,7.81-6,14.15-13.46,14.15S7,59.94,7,52.13a14.11,14.11,0,0,1,9.51-13.52c1.32,5.36,3.29,8.86,5.59,8.62s1.51-3.89.53-9A14,14,0,0,1,33.93,52.13Zm35.84-14c-.53,3-1.13,5.8-1.44,8-1.56-1.27-3.65-2.72-6.09-4.34A13.14,13.14,0,0,1,69.77,38.09Zm1.58,28.19c-7.43,0-13.47-6.34-13.47-14.15a14.72,14.72,0,0,1,.65-4.32c6.52,3.46,11.27,4.8,12.62,2.94a1.05,1.05,0,0,0,.07-.11c2-1.46,3.69-6,4.68-11.81a14.14,14.14,0,0,1,8.91,13.3C84.81,59.94,78.77,66.28,71.35,66.28Z"/></g></g></svg>