<svg xmlns="http://www.w3.org/2000/svg" viewBox="0 0 100.23 138.91"><defs><style>.cls-1{fill:#fff;}</style></defs><g id="Calque_2" data-name="Calque 2"><g id="Calque_1-2" data-name="Calque 1"><ellipse class="cls-1" cx="69.48" cy="119.24" rx="18.6" ry="19.35"/><circle class="cls-1" cx="69.48" cy="81.05" r="12.25"/><path class="cls-1" d="M90.78,83.18C90.21,97.6,87.54,108,92,108.28c4.2.3,7.6-11.9,8.17-26.32S98.38,56,93.36,55.8,91.35,68.75,90.78,83.18Z"/><path class="cls-1" d="M77.91,35.9c0-8.64-5.75-13.77-10.85-16.26.38-5.86-1.2-13.63-8.81-17.59S43.26.57,38.57,3.77c-4.42-2.43-12.3-5.52-19.06-1.64-7,4-8.71,11.54-8.51,17.39C5.85,21.94,0,27,0,35.9c0,8.59,5.79,13.73,10.89,16.24-.31,5.65,1.32,13,8.44,17.41a15.3,15.3,0,0,0,8.21,2.36,18.84,18.84,0,0,0,6.6-1.26Q32.92,84.56,33,98.46c0,9.64.42,19.28,1.3,28.93.27,2.79.57,5.58.92,8.37.52,4.2,7,4.2,7.57,0,.35-2.79.65-5.58.92-8.37.88-9.65,1.29-19.29,1.3-28.93,0-9.33-.37-18.68-1.2-28,4.51,1.67,9.86,2.13,14.78-.88C65.85,65.12,67.4,57.62,67.05,52,72.22,49.4,77.91,44.22,77.91,35.9ZM60.14,44.07a5,5,0,0,0-3.46,6.24c.22.75,2,7.49-3.34,10.73-4.39,2.67-11-2.87-11.09-2.91a5,5,0,0,0-6.71.11c-.06.06-6.27,5.72-10.93,2.82-5.27-3.28-3.42-10.55-3.35-10.82A5,5,0,0,0,17.61,44C16.83,43.84,10,42,10,35.9c0-6.25,6.73-7.94,7.46-8.1a5,5,0,0,0,3.86-6c0-.08-1.72-8.21,3.14-11a4.45,4.45,0,0,1,2.25-.52c3.18,0,7.36,2.23,9.28,3.63a5,5,0,0,0,6.51-.5c.23-.23,5.56-5.41,11.13-2.51,5.14,2.67,3.12,10.3,3,10.6a5,5,0,0,0,3.67,6.25c.78.19,7.57,2,7.57,8.13C67.91,41.74,60.43,44,60.14,44.07Z"/></g></g></svg>