<svg xmlns="http://www.w3.org/2000/svg" viewBox="0 0 50.28 68.93"><defs><style>.cls-1{fill:#B6D37B;}</style></defs><g id="Calque_2" data-name="Calque 2"><g id="Calque_1-2" data-name="Calque 1"><path class="cls-1" d="M3.6,8.36A15.33,15.33,0,0,0,8,13a15.6,15.6,0,0,0,5.93,2.44,16.49,16.49,0,0,0,6.33-.07,1.85,1.85,0,0,0,1.41-2,16.34,16.34,0,0,0-2.21-5.94,15.49,15.49,0,0,0-4.4-4.66A15.28,15.28,0,0,0,9.15.27,16.37,16.37,0,0,0,2.81.35,1.87,1.87,0,0,0,1.4,2.4,16.26,16.26,0,0,0,3.6,8.36Z"/><path class="cls-1" d="M49.55,8.68A16.48,16.48,0,0,0,43.79,6a15.77,15.77,0,0,0-6.4-.18,15.44,15.44,0,0,0-5.92,2.46,16.32,16.32,0,0,0-4.42,4.55,1.84,1.84,0,0,0,.45,2.44A16.2,16.2,0,0,0,33.27,18a15.25,15.25,0,0,0,6.4.16,15.58,15.58,0,0,0,5.91-2.47A16.52,16.52,0,0,0,50,11.12,1.84,1.84,0,0,0,49.55,8.68Z"/><path class="cls-1" d="M38.22,39.7H26.35c.28-3,.42-6,.42-9a98,98,0,0,0-.62-11.09c-.13-1.07-.28-2.13-.45-3.2a1.87,1.87,0,0,0-3.69,0c-.17,1.07-.31,2.13-.44,3.2A93.57,93.57,0,0,0,21,30.69c0,3,.14,6,.42,9H9.5A9.51,9.51,0,0,0,0,49.2V59.43a9.51,9.51,0,0,0,9.5,9.5H38.22a9.52,9.52,0,0,0,9.5-9.5V49.2A9.52,9.52,0,0,0,38.22,39.7Zm3.5,19.73a3.5,3.5,0,0,1-3.5,3.5H9.5A3.5,3.5,0,0,1,6,59.43V49.2a3.5,3.5,0,0,1,3.5-3.5H38.22a3.5,3.5,0,0,1,3.5,3.5Z"/></g></g></svg>