<svg xmlns="http://www.w3.org/2000/svg" viewBox="0 0 47.72 73.12"><defs><style>.cls-1{fill:#B6D37B;}</style></defs><g id="Calque_2" data-name="Calque 2"><g id="Calque_1-2" data-name="Calque 1"><path class="cls-1" d="M16,61.61a1.47,1.47,0,0,1-2.9,0c-.13-1.07-.25-2.14-.35-3.21-.34-3.69-.49-7.39-.5-11.08s.16-7.4.49-11.09q.16-1.63.36-3.27A1.48,1.48,0,0,1,16,33q.21,1.63.36,3.27.51,5.54.49,11.09c0,3.69-.16,7.39-.49,11.08C16.26,59.47,16.15,60.54,16,61.61Z"/><path class="cls-1" d="M16,61.61a1.47,1.47,0,0,1-2.9,0c-.13-1.07-.25-2.14-.35-3.21-.34-3.69-.49-7.39-.5-11.08s.16-7.4.49-11.09q.16-1.63.36-3.27A1.48,1.48,0,0,1,16,33q.21,1.63.36,3.27.51,5.54.49,11.09c0,3.69-.16,7.39-.49,11.08C16.26,59.47,16.15,60.54,16,61.61Z"/><path class="cls-1" d="M26,61.61a1.47,1.47,0,0,1-2.9,0c-.14-1.07-.25-2.14-.36-3.21-.33-3.69-.49-7.39-.49-11.08s.15-7.4.49-11.09q.15-1.63.36-3.27A1.48,1.48,0,0,1,26,33q.19,1.63.36,3.27.5,5.54.49,11.09c0,3.69-.16,7.39-.5,11.08C26.2,59.47,26.08,60.54,26,61.61Z"/><path class="cls-1" d="M35.88,61.61a1.47,1.47,0,0,1-2.9,0c-.13-1.07-.25-2.14-.35-3.21-.34-3.69-.5-7.39-.5-11.08s.15-7.4.49-11.09c.11-1.09.22-2.18.36-3.27a1.48,1.48,0,0,1,2.9,0c.14,1.09.25,2.18.36,3.27q.51,5.54.49,11.09c0,3.69-.16,7.39-.5,11.08C36.13,59.47,36,60.54,35.88,61.61Z"/><path class="cls-1" d="M46.48,14.91l-.08-.07a87.9,87.9,0,0,0-9-7.37A102.7,102.7,0,0,0,27,.93l-.17-.1c-.2-.1-.39-.19-.59-.27A4,4,0,0,0,23.91,0h-.1a4.09,4.09,0,0,0-2.3.56c-.19.08-.39.17-.58.27l-.18.1A101.44,101.44,0,0,0,10.33,7.47a87,87,0,0,0-9,7.37l-.08.07c-2.89,2.78,1.13,5.1,5.12,3l.12-.06A104.5,104.5,0,0,0,16.9,11.27q3.69-2.62,7-5.48,3.27,2.85,7,5.48a105.83,105.83,0,0,0,10.44,6.54l.11.06C45.35,20,49.37,17.69,46.48,14.91Z"/><path class="cls-1" d="M38.22,73.12H9.5A9.51,9.51,0,0,1,0,63.62V30.83a9.51,9.51,0,0,1,9.5-9.5H38.22a9.52,9.52,0,0,1,9.5,9.5V63.62A9.52,9.52,0,0,1,38.22,73.12ZM9.5,27.33A3.5,3.5,0,0,0,6,30.83V63.62a3.5,3.5,0,0,0,3.5,3.5H38.22a3.5,3.5,0,0,0,3.5-3.5V30.83a3.5,3.5,0,0,0-3.5-3.5Z"/></g></g></svg>