<svg xmlns="http://www.w3.org/2000/svg" viewBox="0 0 41.93 71.41"><defs><style>.cls-1{fill:#B6D37B;}</style></defs><g id="Calque_2" data-name="Calque 2"><g id="Calque_1-2" data-name="Calque 1"><path class="cls-1" d="M21,71.41A20.81,20.81,0,0,1,0,50.81C0,42.82,10.26,17.43,16.38,3A5,5,0,0,1,21,0h0a5,5,0,0,1,4.58,3c6.12,14.43,16.38,39.82,16.38,47.81A20.8,20.8,0,0,1,21,71.41ZM21,7.53C11.71,29.55,6,46,6,50.81A14.86,14.86,0,0,0,21,65.52a14.85,14.85,0,0,0,15-14.71C35.93,46,30.23,29.56,21,7.53Z"/></g></g></svg>