<svg xmlns="http://www.w3.org/2000/svg" viewBox="0 0 85.1 72.41"><defs><style>.cls-1{fill:#B6D37B;}</style></defs><g id="Calque_2" data-name="Calque 2"><g id="Calque_1-2" data-name="Calque 1"><path class="cls-1" d="M29,15a10.31,10.31,0,0,0-4.75-8.69,5.91,5.91,0,0,0,.54-.88C25.87,3.2,24,0,24,0s-3.7.44-4.8,2.69a6.17,6.17,0,0,0-.59,2A10.34,10.34,0,0,0,8.49,13.09H4.33a5.58,5.58,0,0,0-2.92.78A3.21,3.21,0,0,0,.26,15l0,0a2.26,2.26,0,0,0-.24,1v6.31c0,1.65,1.94,3,4.33,3h14.8a6.12,6.12,0,0,0,1.51-.19A10.34,10.34,0,0,0,29,15Z"/><path class="cls-1" d="M82.72,43.18c-2-1-4.13-.65-4.8.72s.39,3.27,2.37,4.24,4.81-.72,4.81-.72S84.71,44.15,82.72,43.18Z"/><path class="cls-1" d="M61.62,23.56A6.81,6.81,0,0,0,57,21.76H33.61a6.89,6.89,0,0,0-6.43,4.48l0,.09a6.85,6.85,0,0,0-.39,2.27V43.08a6.83,6.83,0,0,0,5.78,6.74c-.19,2.09-.29,4.17-.28,6.25a67.11,67.11,0,0,0,1,11.37c.19,1.07.41,2.15.66,3.22.53,2.33,5,2.33,5.58,0,.25-1.07.46-2.15.66-3.22a68.16,68.16,0,0,0,1-11.37q0-3.06-.27-6.14h8.15q-.27,3.07-.27,6.14a69.23,69.23,0,0,0,.95,11.37c.2,1.07.41,2.15.66,3.22.54,2.33,5,2.33,5.59,0,.24-1.07.46-2.15.65-3.22a68.17,68.17,0,0,0,1-11.37c0-2-.1-4.11-.28-6.16a6.84,6.84,0,0,0,6.64-6.83V28.6a6.62,6.62,0,0,0-.4-2.28A6.81,6.81,0,0,0,61.62,23.56Z"/><path class="cls-1" d="M75.91,40.17a2,2,0,0,1-.76-.69c-.41-.7-.06-1.76.57-3.41s1.37-3.61.9-5.69c-.63-2.78-5-6.39-10.39-5.71a2,2,0,0,0,.49,3.88,6,6,0,0,1,6.08,2.7,6.75,6.75,0,0,1-.74,3.44c-.74,2-1.67,4.4-.28,6.76A5.75,5.75,0,0,0,74,43.59a2,2,0,0,0,.95.24,2,2,0,0,0,1-3.66Z"/></g></g></svg>