<svg xmlns="http://www.w3.org/2000/svg" viewBox="0 0 44.19 71.41"><defs><style>.cls-1{fill:#B6D37B;}</style></defs><g id="Calque_2" data-name="Calque 2"><g id="Calque_1-2" data-name="Calque 1"><path class="cls-1" d="M22.1,24.07a2,2,0,1,0-2-2A2,2,0,0,0,22.1,24.07Z"/><path class="cls-1" d="M20,26.77a1.86,1.86,0,0,0-2.58-2.58c-.75.52-1.48,1-2.21,1.6A70,70,0,0,0,8.13,32,71.23,71.23,0,0,0,1.91,39.1c-.53.71-1.06,1.43-1.57,2.17a1.86,1.86,0,0,0,2.58,2.58c.74-.51,1.45-1,2.17-1.57a71.23,71.23,0,0,0,7.09-6.22A69,69,0,0,0,18.4,29C18.94,28.25,19.48,27.52,20,26.77Z"/><path class="cls-1" d="M26.51,20c.74-.5,1.46-1,2.17-1.56a71.23,71.23,0,0,0,7.09-6.22A69,69,0,0,0,42,5.12c.55-.72,1.08-1.45,1.6-2.2A1.86,1.86,0,0,0,41,.34c-.75.52-1.48,1-2.2,1.6a69,69,0,0,0-7.09,6.22,71.23,71.23,0,0,0-6.22,7.09c-.53.71-1.06,1.43-1.57,2.17A1.85,1.85,0,0,0,26.51,20Z"/><path class="cls-1" d="M26.15,44.71c-.14-3-.38-6-.76-9-.18-1.38-.39-2.77-.62-4.16a2.71,2.71,0,0,0-5.35,0c-.23,1.39-.44,2.78-.62,4.16-.38,3-.62,6-.76,9h0L16,68.77a2.45,2.45,0,0,0,2.44,2.64h7.14a2.53,2.53,0,0,0,2.52-2.73l-2-24Z"/><path class="cls-1" d="M1.91,5.09a71.23,71.23,0,0,0,6.22,7.09,70,70,0,0,0,7.08,6.22c.73.54,1.46,1.08,2.21,1.6A1.86,1.86,0,0,0,20,17.42c-.52-.75-1.06-1.48-1.6-2.21a70,70,0,0,0-6.22-7.08A71.23,71.23,0,0,0,5.09,1.91C4.37,1.38,3.66.85,2.92.34A1.86,1.86,0,0,0,.34,2.92C.85,3.66,1.38,4.37,1.91,5.09Z"/><path class="cls-1" d="M43.85,41c-.52-.75-1.06-1.48-1.6-2.2A69,69,0,0,0,36,31.72a71.23,71.23,0,0,0-7.09-6.22c-.72-.53-1.43-1.06-2.17-1.57a1.86,1.86,0,0,0-2.58,2.58c.51.74,1,1.46,1.57,2.17A71.23,71.23,0,0,0,32,35.77,70,70,0,0,0,39.06,42c.73.55,1.46,1.08,2.21,1.6A1.86,1.86,0,0,0,43.85,41Z"/></g></g></svg>