<svg xmlns="http://www.w3.org/2000/svg" viewBox="0 0 70.27 75.23"><defs><style>.cls-1{fill:#212549;}</style></defs><g id="Calque_2" data-name="Calque 2"><g id="Calque_1-2" data-name="Calque 1"><path class="cls-1" d="M69.55,32.94c-1.07-1.33-2.17-2.66-3.27-4-1.73-2-3.37-3.88-5-5.69l-.35-.38c-2.07-2.27-4.24-4.53-6.65-6.92C50,11.74,45.6,7.71,41.18,4,39.9,3,38.52,1.82,37.12.72A3.13,3.13,0,0,0,35.74.07L35.4,0a4.36,4.36,0,0,0-.62,0L34.5.07a3.13,3.13,0,0,0-1.37.64C31.72,1.82,30.34,3,29.06,4c-4.43,3.72-8.82,7.74-13,12-2.16,2.13-4.25,4.3-6.21,6.42l0,0-.84.91-.46.49c-.11.14-.25.29-.39.44l-.61.68C6.35,26.2,5.2,27.52,4,28.94s-2.27,2.72-3.27,4a3.09,3.09,0,0,0,.2,4.19,3.09,3.09,0,0,0,4.19.24l.08-.07V61.18c0,7.75,5.24,14.05,11.67,14.05H53.3c6.44,0,11.67-6.3,11.67-14.05v-24l.19.14a3.15,3.15,0,0,0,5.11-2.43A3.21,3.21,0,0,0,69.55,32.94ZM57.35,61.18c0,2.85-1.82,5.17-4.05,5.17H16.86c-2.23,0-4-2.32-4-5.17V33.56a5.81,5.81,0,0,1,1.46-4,4.36,4.36,0,0,1,.57-.52c2.48-2.24,4.94-4.57,7.33-6.93l.92-.94c3.88-3.89,7.62-7.94,11.12-12L34.37,9l.75-.9.71.84.22.27c3.52,4.13,7.25,8.17,11.13,12.06.3.31.6.63.91.92,2.67,2.64,5.1,4.94,7.45,7.06l.11.1.1.08a1.37,1.37,0,0,0,.17.17,5.83,5.83,0,0,1,1.43,4Z"/></g></g></svg>