<svg xmlns="http://www.w3.org/2000/svg" viewBox="0 0 49.54 49.55"><defs><style>.cls-1{fill:#212449;}</style></defs><g id="Calque_2" data-name="Calque 2"><g id="Calque_1-2" data-name="Calque 1"><path class="cls-1" d="M46.9,28c-1.82.36-3.64.66-5.46.93-3.83.54-7.66.87-11.48,1a115.65,115.65,0,0,1-1,11.56c-.27,1.79-.56,3.59-.92,5.38a3.3,3.3,0,0,1-6.47,0c-.35-1.79-.65-3.59-.91-5.38q-.81-5.79-1-11.57A115.65,115.65,0,0,1,8,28.92c-1.79-.27-3.59-.56-5.38-.92a3.3,3.3,0,0,1,0-6.47c1.79-.35,3.59-.64,5.38-.91q5.78-.81,11.56-1,.22-5.74,1-11.48c.27-1.82.57-3.64.93-5.46a3.3,3.3,0,0,1,6.47,0c.36,1.82.66,3.64.93,5.46.54,3.82.87,7.65,1,11.48q5.73.23,11.47,1c1.82.27,3.64.57,5.46.93A3.3,3.3,0,0,1,46.9,28Z"/></g></g></svg>