<svg xmlns="http://www.w3.org/2000/svg" viewBox="0 0 74.59 76.75"><defs><style>.cls-1{fill:#212449;}</style></defs><g id="Calque_2" data-name="Calque 2"><g id="Calque_1-2" data-name="Calque 1"><path class="cls-1" d="M73.79,18.64a17.5,17.5,0,0,0-3.67-6.78,12.48,12.48,0,0,0-9.3-4.44H24.58c0-.22,0-.45,0-.68C24.61,3,22.34,0,19.54,0s-5.06,3-5.06,6.74c0,.23,0,.46,0,.68h-.73a12.47,12.47,0,0,0-9.31,4.44,17.34,17.34,0,0,0-3.62,6.6,1.72,1.72,0,0,0-.07.21A20.42,20.42,0,0,0,0,24.27V59.9c0,9.29,6.18,16.85,13.78,16.85h47c7.59,0,13.77-7.56,13.77-16.85V24.27A19.84,19.84,0,0,0,73.79,18.64ZM67.33,59.9c0,4.39-2.92,8-6.51,8h-47c-3.59,0-6.52-3.58-6.52-8V24.27c0-3.87,2.27-7.1,5.27-7.82l.23-.06h0a6.5,6.5,0,0,1,1-.08h47a5.76,5.76,0,0,1,1.18.13h0c3,.71,5.28,3.95,5.28,7.83Z"/><path class="cls-1" d="M60.11,7.19a1.77,1.77,0,0,1,0,.23H50a1.77,1.77,0,0,1,0-.23C50,3.47,52.25.46,55.05.46S60.11,3.47,60.11,7.19Z"/><rect class="cls-1" x="14.48" y="21.15" width="11.43" height="11.43" rx="2.87"/><rect class="cls-1" x="48.69" y="21.15" width="11.43" height="11.43" rx="2.87"/><rect class="cls-1" x="48.69" y="51.6" width="11.43" height="11.43" rx="2.87"/><rect class="cls-1" x="31.85" y="36.55" width="11.43" height="11.43" rx="2.87" transform="translate(79.82 4.7) rotate(90)"/><rect class="cls-1" x="14.48" y="36.55" width="11.43" height="11.43" rx="2.87" transform="translate(62.45 22.07) rotate(90)"/><rect class="cls-1" x="31.85" y="51.6" width="11.43" height="11.43" rx="2.87" transform="translate(94.87 19.75) rotate(90)"/></g></g></svg>