<svg xmlns="http://www.w3.org/2000/svg" viewBox="0 0 52.96 57.41"><defs><style>.cls-1{fill:#212449;}</style></defs><g id="Calque_2" data-name="Calque 2"><g id="Calque_1-2" data-name="Calque 1"><path class="cls-1" d="M17.05,43.91a3.76,3.76,0,0,1-5.41-5c1.13-1.8,2.31-3.55,3.51-5.29A151.92,151.92,0,0,1,27.67,18.17,149.47,149.47,0,0,1,42.09,4.48C43.63,3.23,45.18,2,46.78.81a3.83,3.83,0,0,1,5.54,5.13c-1.07,1.69-2.17,3.33-3.3,5A149.47,149.47,0,0,1,36.49,26.32,151.91,151.91,0,0,1,22.06,40C20.42,41.33,18.76,42.64,17.05,43.91Z"/><path class="cls-1" d="M7.73,43.78A.91.91,0,0,0,7.1,43c-1.66-.51-4,.95-4.61,3.18L1.4,50,.09,54.54a2.24,2.24,0,0,0,3.19,2.61L7.48,55,11,53.12a4.53,4.53,0,0,0,2.44-4.42,1,1,0,0,0-1.07-.81C10.41,47.92,8,45.73,7.73,43.78Z"/></g></g></svg>