<svg xmlns="http://www.w3.org/2000/svg" viewBox="0 0 59.79 70.32"><defs><style>.cls-1{fill:#212449;}.cls-2{fill:#212549;}</style></defs><g id="Calque_2" data-name="Calque 2"><g id="Calque_1-2" data-name="Calque 1"><path class="cls-1" d="M49.06,17.56,49,17.47a68.21,68.21,0,0,0-7.61-9,67.43,67.43,0,0,0-9-7.62L32.21.71A3.92,3.92,0,0,0,30,0h-.24a4,4,0,0,0-2.2.71l-.15.11a68.07,68.07,0,0,0-9,7.62,69,69,0,0,0-7.61,9l-.06.09a3.66,3.66,0,0,0,5.11,5.12l.1-.07A69.51,69.51,0,0,0,25,15c.25-.25.49-.51.74-.77q-.47,6.51-.46,13a182.56,182.56,0,0,0,1,19.11q.33,2.82.73,5.65a2.94,2.94,0,0,0,5.82,0q.42-2.84.73-5.65a179.88,179.88,0,0,0,1-19.11q0-6.49-.46-13c.25.26.49.52.75.77a68.76,68.76,0,0,0,9,7.61l.1.07A3.66,3.66,0,0,0,49.06,17.56Z"/><path class="cls-2" d="M56.09,41.46h-.23a3.7,3.7,0,0,0-3.7,3.7V56.27c0,2.85-1.82,5.18-4,5.18H11.67c-2.23,0-4-2.33-4-5.18V45.16a3.7,3.7,0,0,0-3.7-3.7H3.7A3.7,3.7,0,0,0,0,45.16V56.27c0,7.75,5.24,14,11.67,14H48.11c6.44,0,11.68-6.3,11.68-14V45.16A3.7,3.7,0,0,0,56.09,41.46Z"/></g></g></svg>