<svg xmlns="http://www.w3.org/2000/svg" viewBox="0 0 51.45 71.08"><defs><style>.cls-1{fill:#212449;}</style></defs><g id="Calque_2" data-name="Calque 2"><g id="Calque_1-2" data-name="Calque 1"><path class="cls-1" d="M43.9,29.34l-.13-.08a89.94,89.94,0,0,1-11.68-9.84c-.32-.32-.64-.64-1-1q.62,8.55.59,17.08a238.73,238.73,0,0,1-1.3,24.91c-.28,2.46-.58,4.91-.94,7.37a3.8,3.8,0,0,1-7.53,0c-.36-2.46-.66-4.91-.94-7.37a238.73,238.73,0,0,1-1.3-24.91q0-8.54.59-17.08c-.31.33-.63.65-.95,1A89.94,89.94,0,0,1,7.68,29.26l-.12.08A4.73,4.73,0,0,1,.94,22.73L1,22.6a89.82,89.82,0,0,1,9.84-11.68A88.4,88.4,0,0,1,22.53,1.07l.2-.13A5.07,5.07,0,0,1,25.4,0h.65a5.07,5.07,0,0,1,2.67.93l.2.13a87.75,87.75,0,0,1,11.66,9.85A89.89,89.89,0,0,1,50.43,22.6l.08.13A4.72,4.72,0,0,1,43.9,29.34Z"/></g></g></svg>