<svg xmlns="http://www.w3.org/2000/svg" viewBox="0 0 59.79 70.33"><defs><style>.cls-1{fill:#212449;}.cls-2{fill:#212549;}</style></defs><g id="Calque_2" data-name="Calque 2"><g id="Calque_1-2" data-name="Calque 1"><path class="cls-1" d="M43.94,31.83l-.09.06a68.21,68.21,0,0,0-9,7.61c-.26.26-.5.52-.75.78q.47-6.51.47-13a182.38,182.38,0,0,0-1-19.1c-.21-1.88-.45-3.77-.73-5.65a2.94,2.94,0,0,0-5.82,0c-.27,1.88-.51,3.77-.73,5.65a182.37,182.37,0,0,0-1,19.1q0,6.51.46,13L25,39.5a69.51,69.51,0,0,0-9-7.61l-.1-.06a3.65,3.65,0,0,0-5.11,5.11l.06.1a70.31,70.31,0,0,0,7.61,9,68.83,68.83,0,0,0,9,7.62l.15.1a3.89,3.89,0,0,0,2.2.71H30a3.85,3.85,0,0,0,2.2-.71l.15-.1a68.18,68.18,0,0,0,9-7.62A69.51,69.51,0,0,0,49,37l.07-.1A3.66,3.66,0,0,0,43.94,31.83Z"/><path class="cls-2" d="M56.09,41.47h-.23a3.7,3.7,0,0,0-3.7,3.7V56.28c0,2.85-1.82,5.18-4,5.18H11.67c-2.23,0-4-2.33-4-5.18V45.17a3.7,3.7,0,0,0-3.7-3.7H3.7A3.7,3.7,0,0,0,0,45.17V56.28c0,7.75,5.24,14,11.67,14H48.11c6.44,0,11.68-6.3,11.68-14V45.17A3.7,3.7,0,0,0,56.09,41.47Z"/></g></g></svg>