<svg xmlns="http://www.w3.org/2000/svg" viewBox="0 0 91.85 69.78"><defs><style>.cls-1{fill:#212449;}</style></defs><g id="Calque_2" data-name="Calque 2"><g id="Calque_1-2" data-name="Calque 1"><path class="cls-1" d="M91.42,5a5.2,5.2,0,0,0-.21-.55h0A7.28,7.28,0,0,0,84.46,0H7.38A7.27,7.27,0,0,0,.64,4.47C.56,4.65.49,4.83.42,5A7.77,7.77,0,0,0,0,7.33V20.05H0V52.82a17,17,0,0,0,17,17H74.9a17,17,0,0,0,16.95-17V7.56A7.7,7.7,0,0,0,91.42,5Zm-76,4.07L15.74,9h0A9.57,9.57,0,0,1,17,8.93H74.9a8.81,8.81,0,0,1,1.46.14h0a1.6,1.6,0,0,1,.31,2.71L46.91,35.16a1.62,1.62,0,0,1-2,0L15.14,11.79A1.6,1.6,0,0,1,15.46,9.09ZM82.92,52.82a8,8,0,0,1-8,8H17a8,8,0,0,1-8-8V18.32L41.42,43.77h0a7.19,7.19,0,0,0,4.5,1.57,7.26,7.26,0,0,0,4.49-1.57L82.9,18.29l0,0Z"/></g></g></svg>