<svg xmlns="http://www.w3.org/2000/svg" viewBox="0 0 79.25 81.54"><defs><style>.cls-1{fill:#212449;}</style></defs><g id="Calque_2" data-name="Calque 2"><g id="Calque_1-2" data-name="Calque 1"><path class="cls-1" d="M73.19,40.65v0l.13,0ZM5.35,40.8h.7v0A5.36,5.36,0,0,1,5.35,40.8Z"/><path class="cls-1" d="M74.47,40.66H73.32l-.13,0v0a35.35,35.35,0,0,0-4.47-17.18,6,6,0,0,0,1.79-8.95,40.7,40.7,0,0,0-5-5.21,6,6,0,0,0-9.06,1.4l0,0A32.54,32.54,0,0,0,39.62,6h-.1V6A6,6,0,0,0,32.44.1a39.34,39.34,0,0,0-7,2,6,6,0,0,0-2.89,8.73v0A34.46,34.46,0,0,0,10.41,23.66,6,6,0,0,0,2,26.89,41.52,41.52,0,0,0,.17,34.12c-.06.34-.11.68-.15,1a1.37,1.37,0,0,0,0,.29,5.32,5.32,0,0,0,6.05,5.31v0A35.54,35.54,0,0,0,10.48,58a6,6,0,0,0-1.8,8.94,40.71,40.71,0,0,0,4.94,5.22,6,6,0,0,0,9.07-1.38v0a32.65,32.65,0,0,0,16.92,4.73h0v.05a6,6,0,0,0,7.06,5.9,39.39,39.39,0,0,0,7-2,6,6,0,0,0,2.91-8.73h0A34.61,34.61,0,0,0,68.8,57.93a6,6,0,0,0,8.47-3.21,42.08,42.08,0,0,0,1.87-7.67,3.47,3.47,0,0,0,.08-.55,4.71,4.71,0,0,0,0-.53A5.34,5.34,0,0,0,74.47,40.66ZM39.62,65.49c-13,0-23.57-11.09-23.57-24.72S26.62,16,39.62,16,63.19,27.13,63.19,40.77,52.62,65.49,39.62,65.49Z"/></g></g></svg>