<svg xmlns="http://www.w3.org/2000/svg" viewBox="0 0 39.78 23.4"><defs><style>.cls-1{fill:#212449;}</style></defs><g id="Calque_2" data-name="Calque 2"><g id="Calque_1-2" data-name="Calque 1"><path class="cls-1" d="M33.94.72l-.1.07a69.07,69.07,0,0,0-14,13.09A69.35,69.35,0,0,0,15,8.4a69.51,69.51,0,0,0-9-7.61L5.84.72A3.66,3.66,0,0,0,.72,5.84l.07.1A69.51,69.51,0,0,0,8.4,15a68.83,68.83,0,0,0,9,7.62l.15.1a4.15,4.15,0,0,0,4.64,0l.15-.1a68.83,68.83,0,0,0,9-7.62,69.51,69.51,0,0,0,7.61-9l.07-.1A3.66,3.66,0,0,0,33.94.72Z"/></g></g></svg>