<svg xmlns="http://www.w3.org/2000/svg" viewBox="0 0 37.03 37.03"><defs><style>.cls-1{fill:#BE2121;}</style></defs><g id="Calque_2" data-name="Calque 2"><g id="Calque_1-2" data-name="Calque 1"><path class="cls-1" d="M36.45,31.87c-1-1.52-2.08-3-3.16-4.45-2.34-3.11-4.84-6.07-7.45-8.91a114.74,114.74,0,0,0,7.41-8.84c1.09-1.48,2.17-3,3.2-4.52A3.3,3.3,0,0,0,31.87.58c-1.54,1-3,2.11-4.51,3.2-3.09,2.33-6,4.81-8.84,7.4-2.82-2.59-5.76-5.07-8.84-7.4C8.2,2.69,6.7,1.61,5.16.58A3.3,3.3,0,0,0,.59,5.15c1,1.54,2.1,3,3.2,4.52,2.33,3.09,4.81,6,7.4,8.84-2.61,2.84-5.1,5.8-7.45,8.91C2.66,28.88,1.6,30.35.58,31.87a3.3,3.3,0,0,0,4.57,4.58c1.52-1,3-2.08,4.46-3.16,3.11-2.35,6.07-4.85,8.91-7.46,2.84,2.61,5.8,5.11,8.9,7.46,1.46,1.08,2.94,2.14,4.46,3.16A3.3,3.3,0,0,0,36.45,31.87Z"/></g></g></svg>