<svg xmlns="http://www.w3.org/2000/svg" viewBox="0 0 68.63 69.78"><defs><style>.cls-1{fill:#fff;}</style></defs><g id="Calque_2" data-name="Calque 2"><g id="Calque_1-2" data-name="Calque 1"><ellipse class="cls-1" cx="50.03" cy="50.44" rx="18.6" ry="19.35"/><circle class="cls-1" cx="50.03" cy="12.25" r="12.25"/><path class="cls-1" d="M18.87,31.42h0V26.85a2,2,0,0,0-2-2H7.16a2,2,0,0,0-2,2v4.59A5.62,5.62,0,0,0,0,37V60.36a5.62,5.62,0,0,0,4.44,5.49c0,.12,0,.23,0,.36,0,2,1.24,3.57,2.89,3.57s2.89-1.53,2.89-3.57c0-.08,0-.16,0-.23H14.3a1.64,1.64,0,0,0,0,.23c0,2,1.24,3.57,2.89,3.57s2.9-1.53,2.9-3.57c0-.13,0-.24,0-.36a5.61,5.61,0,0,0,4.44-5.49V37A5.62,5.62,0,0,0,18.87,31.42Zm-4-2.57v2.57H9.16V28.85Z"/></g></g></svg>