<svg xmlns="http://www.w3.org/2000/svg" viewBox="0 0 68.67 69.78"><defs><style>.cls-1{fill:white;}</style></defs><g id="Calque_2" data-name="Calque 2"><g id="Calque_1-2" data-name="Calque 1"><path class="cls-1" d="M65.93,45.83c-.25.78-.49,1.55-.71,2.33a69.16,69.16,0,0,0-1.74,8c-.15,1-.28,1.93-.39,2.9L38,2.4a4,4,0,0,0-7.29,0L5.57,59.06c-.11-1-.23-1.93-.38-2.9a71.32,71.32,0,0,0-1.74-8c-.23-.78-.46-1.55-.71-2.33C2.36,44.69,0,45.06,0,46.26c0,.82,0,1.63,0,2.44a67.14,67.14,0,0,0,.81,8.15,71.32,71.32,0,0,0,1.74,8c.16.55.33,1.1.5,1.64A4,4,0,0,0,7,69.78H61.65a4,4,0,0,0,3.92-3.29c.17-.54.35-1.09.5-1.64a69.21,69.21,0,0,0,1.75-8,69.2,69.2,0,0,0,.81-8.15c0-.81,0-1.62,0-2.44C68.66,45.06,66.31,44.69,65.93,45.83ZM55,56.54A48.28,48.28,0,0,1,43,42.2a48.89,48.89,0,0,1-5.89-25.31A4.19,4.19,0,0,1,38,18.11ZM30.69,18.11A4,4,0,0,1,32,16.49a49.14,49.14,0,0,1-5.81,26.9,48.34,48.34,0,0,1-13.3,15.38,4.26,4.26,0,0,1,.33-1.22ZM16.85,63.31a3.78,3.78,0,0,1-1.36-.25A53.43,53.43,0,0,0,30.57,45.79a52.84,52.84,0,0,0,4.23-10.1,52.08,52.08,0,0,0,3.84,8.91A53.35,53.35,0,0,0,54.38,62.35a3.87,3.87,0,0,1-2.56,1Z"/></g></g></svg>