<svg xmlns="http://www.w3.org/2000/svg" viewBox="0 0 53.64 76"><defs><style>.cls-1{fill:#F9E59A;}</style></defs><g id="Calque_2" data-name="Calque 2"><g id="Calque_2-2" data-name="Calque 2"><path class="cls-1" d="M52.25,50.18a6.24,6.24,0,0,1-1.41-1.08,8.45,8.45,0,0,0-12.27,0c-1,.91-1.52,1.36-2.8,1.36S34,50,33,49.1a8.45,8.45,0,0,0-12.27,0c-1,.91-1.52,1.36-2.8,1.36S16.07,50,15.08,49.1a8.43,8.43,0,0,0-8-2.42q3.21-9,5.72-18.25c1.77-6.5,3.3-13.07,4.54-19.71.28-1.57.54-3.14.8-4.72,2.71-.14,10.63.06,16.69,6.43a22.55,22.55,0,0,1,6,14.1,1,1,0,0,0,1,.95h.05a1,1,0,0,0,.95-1A24.65,24.65,0,0,0,36.24,9.05,23.46,23.46,0,0,0,18.3,2a2.35,2.35,0,0,0-4.55-.39C13,3.44,12.32,5.31,11.63,7.18Q8.18,16.7,5.55,26.47C3.79,33,2.26,39.54,1,46.18Q.5,49.08,0,52a3.23,3.23,0,0,0,0,.53v3H0V68a6.48,6.48,0,0,0,.57,2.66A8.11,8.11,0,0,0,3.21,73.9,11.22,11.22,0,0,0,9.9,76H43.73a11.22,11.22,0,0,0,6.69-2.1A7.94,7.94,0,0,0,53,70.78s0-.07,0-.1A6.63,6.63,0,0,0,53.64,68V55.46h0V52.53A2.59,2.59,0,0,0,52.25,50.18ZM48.42,68c0,1.83-1.63,3.36-3.79,3.7l-.17,0h0a5.53,5.53,0,0,1-.71,0H9.9a6,6,0,0,1-.85-.06H9C6.85,71.4,5.22,69.87,5.22,68V54.85a2.71,2.71,0,0,1,.91-2h0c1-.88,1.52-1.37,2.8-1.37s1.79.46,2.81,1.37a8.47,8.47,0,0,0,12.27,0c1-.91,1.53-1.37,2.81-1.37s1.79.46,2.8,1.37a8.47,8.47,0,0,0,12.27,0c1-.91,1.53-1.37,2.81-1.37s1.78.46,2.79,1.37h0a2.69,2.69,0,0,1,.91,2Z"/><path class="cls-1" d="M32,25.2c-1.59,1-1,1.5-2.3,2.33-1.13.73-1.92.45-2.5,1.11h0c-.83,1-.16,2.64,0,3a.05.05,0,0,0,0,0,2.21,2.21,0,0,0,.25.48,1.85,1.85,0,0,0,.19.27,7.08,7.08,0,0,0,4.15,2.61h0c.2.07.39.11.58.16l.45.08a2,2,0,0,0,.39.05h0a9.61,9.61,0,0,0,1.09,0c3.4,0,6.28-1.58,7.21-3.75l.08.06,2,1.17,2,1.17a1.56,1.56,0,0,0,2.36-1.35,1.41,1.41,0,0,0-.35-.9,5.66,5.66,0,0,0-1.36-.69c-1-.34-1-1.18,0-1.51A5.22,5.22,0,0,0,47.69,29a1.85,1.85,0,0,0,.45-1,1.55,1.55,0,0,0-2.36-1.36l-2,1.17-2,1.17C40.7,26.23,36.3,23,32,25.2Z"/></g></g></svg>