<svg xmlns="http://www.w3.org/2000/svg" viewBox="0 0 38.02 69.78"><defs><style>.cls-1{fill:#F9E59A;}</style></defs><g id="Calque_2" data-name="Calque 2"><g id="Calque_1-2" data-name="Calque 1"><path class="cls-1" d="M29.3,10.21h0V3.11A3.11,3.11,0,0,0,26.19,0H11.12A3.1,3.1,0,0,0,8,3.11v7.14a8.71,8.71,0,0,0-8,8.68V55.15a8.73,8.73,0,0,0,6.9,8.53c0,.18,0,.36,0,.55,0,3.17,1.93,5.55,4.49,5.55s4.49-2.38,4.49-5.55c0-.12,0-.24,0-.36H22.2c0,.12,0,.24,0,.36,0,3.17,1.94,5.55,4.5,5.55s4.49-2.38,4.49-5.55c0-.19,0-.37,0-.55A8.73,8.73,0,0,0,38,55.15V18.93A8.73,8.73,0,0,0,29.3,10.21Zm-15.07-4h8.85v4H14.23ZM31.82,51.39a6.26,6.26,0,0,1-6.25,6.26H12.45a6.27,6.27,0,0,1-6.26-6.26V22.92a6.26,6.26,0,0,1,6.26-6.25H25.57a6.25,6.25,0,0,1,6.25,6.25Z"/></g></g></svg>