<svg xmlns="http://www.w3.org/2000/svg" viewBox="0 0 53.64 69.69"><defs><style>.cls-1{fill:#F9E59A;}</style></defs><g id="Calque_2" data-name="Calque 2"><g id="Calque_1-2" data-name="Calque 1"><path class="cls-1" d="M53.64,23.47V20.54h0V8a6.48,6.48,0,0,0-.57-2.66A8.11,8.11,0,0,0,50.43,2.1,11.22,11.22,0,0,0,43.74,0H9.91A11.22,11.22,0,0,0,3.22,2.1,7.94,7.94,0,0,0,.61,5.22l0,.1A6.63,6.63,0,0,0,0,8V20.54H0v2.93a2.59,2.59,0,0,0,1.39,2.35,3,3,0,0,1,.54.36,59.79,59.79,0,0,0-.33,6.13A58.71,58.71,0,0,0,2,39.05c.06.48.14,1,.21,1.45A9.45,9.45,0,0,0,0,46.56V60.19a9.51,9.51,0,0,0,9.5,9.5H44.13a9.51,9.51,0,0,0,9.5-9.5V46.56a9.45,9.45,0,0,0-2.18-6.05c.07-.46.14-.92.2-1.37A58.75,58.75,0,0,0,52,32.39a58.73,58.73,0,0,0-.34-6.21,3.05,3.05,0,0,1,.55-.36A2.59,2.59,0,0,0,53.64,23.47ZM18.28,4.2h7.16c-.13.8-.24,1.61-.35,2.41a68,68,0,0,0-.46,8.18A70.23,70.23,0,0,0,25.1,23c0,.4.11.8.17,1.2a7.9,7.9,0,0,1-1.26-1,8.47,8.47,0,0,0-12.27,0,9.07,9.07,0,0,1-1.18.95c.16-.65.32-1.3.49-1.94A84.15,84.15,0,0,1,13.63,14a70.41,70.41,0,0,1,3.5-7.74C17.49,5.59,17.88,4.9,18.28,4.2Zm17.6,0c.34.6.66,1.19,1,1.79a69.32,69.32,0,0,1,3.49,7.74c1,2.65,1.85,5.35,2.59,8.16.22.81.42,1.64.62,2.47a5.49,5.49,0,0,1-1.67-1.19,8.47,8.47,0,0,0-12.27,0,8.89,8.89,0,0,1-1.25,1c.06-.4.12-.8.17-1.19A72.52,72.52,0,0,0,29,14.79a70.11,70.11,0,0,0-.47-8.18c-.1-.8-.21-1.61-.34-2.41h7.67ZM8.94,29.54a8.45,8.45,0,0,0,6.13-2.64c1-.91,1.52-1.36,2.8-1.36s1.79.45,2.81,1.36A8.45,8.45,0,0,0,33,26.9c1-.91,1.52-1.36,2.8-1.36a3.69,3.69,0,0,1,2.81,1.36,8.48,8.48,0,0,0,6.14,2.64,7.83,7.83,0,0,0,3.85-.94c-.08,1.27-.13,2.53-.13,3.79,0,2,.12,3.91.31,5.86a9.4,9.4,0,0,0-4.6-1.19H9.51a9.37,9.37,0,0,0-4.61,1.2,59.46,59.46,0,0,0,.32-5.95c0-1.24,0-2.47-.12-3.7A7.9,7.9,0,0,0,8.94,29.54ZM44.59,4.26h0c2.16.34,3.79,1.87,3.79,3.71V21.15a2.67,2.67,0,0,1-.91,2h0c-.28.26-.53.47-.77.66q.1-1.23.09-2.46A28.14,28.14,0,0,0,45,12,26.72,26.72,0,0,0,40.45,4.2h3.29A6,6,0,0,1,44.59,4.26ZM5.22,8c0-1.83,1.63-3.36,3.79-3.7l.17,0h0a5.53,5.53,0,0,1,.71,0h3.86A26.39,26.39,0,0,0,9,12.26a28,28,0,0,0-1.79,9.41c0,.8,0,1.6.07,2.4a8.27,8.27,0,0,1-1.1-.9h0a2.69,2.69,0,0,1-.91-2ZM47.63,60.19a3.5,3.5,0,0,1-3.5,3.5H9.51A3.5,3.5,0,0,1,6,60.19V46.56a3.5,3.5,0,0,1,3.5-3.5H44.13a3.5,3.5,0,0,1,3.5,3.5Z"/></g></g></svg>