<svg xmlns="http://www.w3.org/2000/svg" viewBox="0 0 53.82 69.61"><defs><style>.cls-1{fill:#F9E59A;}</style></defs><g id="Calque_2" data-name="Calque 2"><g id="Calque_1-2" data-name="Calque 1"><path class="cls-1" d="M28.28,68.25c-.29,1.82-3.94,1.82-4.23,0-.2-1.2-.37-2.41-.52-3.61a107.08,107.08,0,0,1-.72-12.51,104.88,104.88,0,0,1,.71-12.5c.16-1.22.33-2.45.53-3.68.29-1.81,3.93-1.81,4.23,0,.2,1.23.37,2.46.52,3.68a107,107,0,0,1,.72,12.5,109.33,109.33,0,0,1-.73,12.51C28.64,65.84,28.47,67.05,28.28,68.25Z"/><path class="cls-1" d="M53.8,12.22a1.83,1.83,0,0,1-1,1.8l-2.68,1.7-2.69,1.72a3.08,3.08,0,0,1-1.17.43l-31.73,5a2.94,2.94,0,0,1-3.37-2.47l-.45-2.89a2.94,2.94,0,0,1,2.45-3.38l31.73-5a3.12,3.12,0,0,1,1.25.06l3.09.81,3.07.8A1.83,1.83,0,0,1,53.8,12.22Z"/><path class="cls-1" d="M0,2.11A1.27,1.27,0,0,0,.68,3.36L2.53,4.57,4.38,5.79a2.21,2.21,0,0,0,.82.31l22,3.73a2.05,2.05,0,0,0,2.37-1.69l.34-2a2,2,0,0,0-1.68-2.37L6.22,0a2.13,2.13,0,0,0-.87,0L3.2.6l-2.15.53A1.28,1.28,0,0,0,0,2.11Z"/><path class="cls-1" d="M9.39,29.41a1.22,1.22,0,0,0,.79,1.07l1.88.85L14,32.2a2,2,0,0,0,.79.17l20.88.34a1.91,1.91,0,0,0,2-1.89l0-1.91A1.92,1.92,0,0,0,35.71,27l-20.87-.34a1.87,1.87,0,0,0-.8.15l-1.92.8-1.9.79A1.19,1.19,0,0,0,9.39,29.41Z"/></g></g></svg>