<svg xmlns="http://www.w3.org/2000/svg" viewBox="0 0 53.64 73.97"><defs><style>.cls-1{fill:#F9E59A;}</style></defs><g id="Calque_2" data-name="Calque 2"><g id="Calque_1-2" data-name="Calque 1"><path class="cls-1" d="M52.25,48.15a6.9,6.9,0,0,1-1.41-1.08,8.45,8.45,0,0,0-12.27,0c-1,.91-1.52,1.36-2.8,1.36S34,48,33,47.07a8.45,8.45,0,0,0-12.27,0,4.9,4.9,0,0,1-1.83,1.23c0-.43.09-.86.13-1.29a26.7,26.7,0,0,0,2.35-2,29.34,29.34,0,0,0,4-4.85,28.74,28.74,0,0,0,2.9-5.59,21.23,21.23,0,0,0,1.32-5.26.76.76,0,0,0-1.12-.73,20.83,20.83,0,0,0-4.32,3.26,28.79,28.79,0,0,0-4,4.85c-.24.36-.46.72-.68,1.08,0-1,0-2.09,0-3.14,0-4.09-.15-8.18-.49-12.27-.1-1.21-.22-2.41-.35-3.62a1.43,1.43,0,0,0-2.86,0c-.14,1.21-.25,2.41-.35,3.62-.22,2.65-.35,5.3-.43,8-.2-.66-.42-1.32-.68-2a28.25,28.25,0,0,0-2.91-5.58,21.07,21.07,0,0,0-3.54-4.1.76.76,0,0,0-1.24.49,21,21,0,0,0,.19,5.41,28.3,28.3,0,0,0,1.66,6.08,29.4,29.4,0,0,0,2.92,5.58,21.31,21.31,0,0,0,3.53,4.09.42.42,0,0,0,.12.08q.12,3.26.38,6.51c0,.17,0,.34.05.51l-.41-.36a8.46,8.46,0,0,0-12.28,0,6.9,6.9,0,0,1-1.41,1.08A2.59,2.59,0,0,0,0,50.49v2.94H0V66a6.48,6.48,0,0,0,.57,2.66,8.11,8.11,0,0,0,2.64,3.21A11.22,11.22,0,0,0,9.9,74H43.73a11.22,11.22,0,0,0,6.69-2.1A7.94,7.94,0,0,0,53,68.75l0-.1A6.63,6.63,0,0,0,53.64,66V53.43h0V50.49A2.59,2.59,0,0,0,52.25,48.15ZM48.42,66c0,1.83-1.63,3.36-3.79,3.7l-.17,0h0a5.53,5.53,0,0,1-.71,0H9.9a6,6,0,0,1-.85-.06H9C6.85,69.37,5.22,67.84,5.22,66V52.81a2.72,2.72,0,0,1,.91-2h0c1-.88,1.52-1.37,2.8-1.37s1.79.46,2.81,1.37a8.46,8.46,0,0,0,12.27,0c1-.9,1.53-1.36,2.81-1.36s1.79.46,2.8,1.37a8.46,8.46,0,0,0,12.27,0c1-.9,1.53-1.36,2.81-1.36s1.78.46,2.79,1.36h0a2.67,2.67,0,0,1,.91,2Z"/><path class="cls-1" d="M15.89,13a2,2,0,0,0,3.75.45c.24-.44.45-.89.65-1.33a16.59,16.59,0,0,0,1.2-4.5A16.21,16.21,0,0,0,21.4,3c-.09-.49-.19-1-.33-1.47A2,2,0,0,0,17.33,1c-.25.45-.46.9-.67,1.35a16.56,16.56,0,0,0-1.19,4.5,17,17,0,0,0,.1,4.66C15.66,12,15.76,12.51,15.89,13Z"/></g></g></svg>