<svg xmlns="http://www.w3.org/2000/svg" viewBox="0 0 65.35 75.93"><defs><style>.cls-1{fill:#F9E59A;}</style></defs><g id="Calque_2" data-name="Calque 2"><g id="Calque_1-2" data-name="Calque 1"><path class="cls-1" d="M61.89,30.89H49.49V5.81A5.82,5.82,0,0,0,43.67,0H20.09a5.81,5.81,0,0,0-5.81,5.81V41.19h-10A4.3,4.3,0,0,0,0,45.49V71.64a4.29,4.29,0,0,0,4.29,4.29H21.23a4.07,4.07,0,0,0,1.11-.15H46.93a3.31,3.31,0,0,0,1,.15h14a3.46,3.46,0,0,0,3.46-3.46V34.35A3.46,3.46,0,0,0,61.89,30.89Zm-53.6,41A4.29,4.29,0,0,1,4,67.64V49.49a4.3,4.3,0,0,1,4.29-4.3h6V70a5.59,5.59,0,0,0,.35,2Zm29.38-2.15H26.09a3.64,3.64,0,0,1-.57,0,5.65,5.65,0,0,1-3.77-1.92,3.11,3.11,0,0,1-.23-.28A5.76,5.76,0,0,1,20.28,64V11.81A5.81,5.81,0,0,1,26.09,6H37.67a5.82,5.82,0,0,1,5.82,5.81V64A5.82,5.82,0,0,1,37.67,69.78Zm24.11-.87a3.44,3.44,0,0,1-3.45,3.45H51.45a3.39,3.39,0,0,1-2.19-.8,5.63,5.63,0,0,0,.23-1.6V35.07a3.4,3.4,0,0,1,2-.61h6.88a3.44,3.44,0,0,1,3.45,3.45Z"/><rect class="cls-1" x="23.52" y="14.27" width="4.72" height="4.72" rx="1.13"/><rect class="cls-1" x="29.48" y="14.27" width="4.72" height="4.72" rx="1.13"/><rect class="cls-1" x="35.52" y="14.27" width="4.72" height="4.72" rx="1.13"/><rect class="cls-1" x="23.48" y="23.38" width="4.72" height="4.72" rx="1.13"/><rect class="cls-1" x="29.44" y="23.38" width="4.72" height="4.72" rx="1.13"/><rect class="cls-1" x="35.48" y="23.38" width="4.72" height="4.72" rx="1.13"/><rect class="cls-1" x="23.42" y="32.48" width="4.72" height="4.72" rx="1.13"/><rect class="cls-1" x="29.37" y="32.48" width="4.72" height="4.72" rx="1.13"/><rect class="cls-1" x="35.42" y="32.48" width="4.72" height="4.72" rx="1.13"/><rect class="cls-1" x="23.34" y="41.59" width="4.72" height="4.72" rx="1.13"/><rect class="cls-1" x="29.3" y="41.59" width="4.72" height="4.72" rx="1.13"/><rect class="cls-1" x="35.34" y="41.59" width="4.72" height="4.72" rx="1.13"/><rect class="cls-1" x="23.28" y="50.7" width="4.72" height="4.72" rx="1.13"/><rect class="cls-1" x="29.24" y="50.7" width="4.72" height="4.72" rx="1.13"/><rect class="cls-1" x="35.28" y="50.7" width="4.72" height="4.72" rx="1.13"/><rect class="cls-1" x="23.2" y="59.8" width="4.72" height="4.72" rx="1.13"/><rect class="cls-1" x="29.16" y="59.8" width="4.72" height="4.72" rx="1.13"/><rect class="cls-1" x="35.2" y="59.8" width="4.72" height="4.72" rx="1.13"/></g></g></svg>