<svg xmlns="http://www.w3.org/2000/svg" viewBox="0 0 51.57 57.37"><defs><style>.cls-1{fill:#F9E59A;}</style></defs><g id="Calque_2" data-name="Calque 2"><g id="Calque_1-2" data-name="Calque 1"><path class="cls-1" d="M50.18,41c0,2.29-4.49,3-5.2.82-.47-1.44-.91-2.89-1.33-4.34a131.61,131.61,0,0,1-3.32-15.22A131.39,131.39,0,0,1,38.78,6.75c-.05-1.53-.08-3.07-.07-4.62,0-2.29,4.49-3,5.2-.82.48,1.47.93,2.94,1.36,4.42A133.69,133.69,0,0,1,48.58,21a133.52,133.52,0,0,1,1.53,15.51C50.16,38,50.19,39.48,50.18,41Z"/><path class="cls-1" d="M51.27,52.35c.32,3.92,0,5,0,5H48.9s.23-.75,0-1a.79.79,0,0,0-1.09,0c-.23.29,0,1,0,1H45s.24-.76,0-1a.78.78,0,0,0-1.08,0c-.23.29,0,1,0,1H40.82s.24-.76,0-1a.79.79,0,0,0-1.09,0c-.23.29,0,1,0,1H36.67s.23-.76,0-1a.78.78,0,0,0-1.08,0c-.23.29,0,1,0,1H32.52s.24-.76,0-1a.78.78,0,0,0-1.08,0c-.23.29,0,1,0,1H28.37s.24-.76,0-1a.79.79,0,0,0-1.09,0c-.23.29,0,1,0,1H24.22s.24-.76,0-1a.79.79,0,0,0-1.09,0c-.23.3,0,1,0,1H21S20,55.12,20,54.9c0-.93.45-1.39,1.05-2.55,1.19-2.28.88-2.87,1.47-3.65,1.41-1.83,4.32-.12,8.44-.7a12.55,12.55,0,0,0,3.26-.92c.39.63.82,1.24,1.27,1.83.18.22.35.44.53.65s1-.1.82-.49-.21-.52-.32-.77c-.29-.64-.61-1.28-1-1.9.4-.22.78-.44,1.15-.68.38.6.78,1.18,1.22,1.75l.52.65c.27.32,1-.11.83-.5s-.21-.51-.32-.77c-.3-.67-.64-1.33-1-2,.43-.29.83-.58,1.22-.83a24,24,0,0,0,1.36,2c.17.22.34.43.52.64s1-.1.83-.49-.21-.52-.32-.77a23.8,23.8,0,0,0-1.1-2.13,3.17,3.17,0,0,1,2.82-.22c1.35.59,1.39,1.72,3,2.09,2.43.54,4.07-1.51,5-.79s-.35,2.6-.08,6.87C51.2,51.4,51.23,51.72,51.27,52.35Z"/><path class="cls-1" d="M29.94,19.88a2.65,2.65,0,0,1-4.52-2c0-.87.12-1.72.23-2.56A27,27,0,0,1,31.09,2.72c.55-.66,1.11-1.31,1.74-1.94a2.65,2.65,0,0,1,4.52,2c0,.89-.12,1.75-.23,2.6A26.13,26.13,0,0,1,35.21,12,26.28,26.28,0,0,1,31.65,18,25.67,25.67,0,0,1,29.94,19.88Z"/><path class="cls-1" d="M28.12,30.58A16.19,16.19,0,0,1,26.8,35l-2.08-.62s.4-.6.27-.92a.72.72,0,0,0-.95-.29c-.28.2-.28.92-.28.92l-2.49-.74s.41-.61.28-.92a.73.73,0,0,0-.95-.29c-.28.19-.28.92-.28.92l-2.69-.8s.41-.61.28-.92A.73.73,0,0,0,17,31c-.28.19-.28.92-.28.92L14,31.15s.41-.61.28-.92a.73.73,0,0,0-.95-.29c-.28.2-.28.92-.28.92l-2.68-.8s.4-.61.27-.92a.73.73,0,0,0-1-.29c-.28.2-.28.92-.28.92L6.72,29s.4-.61.27-.92a.73.73,0,0,0-1-.29c-.28.2-.28.92-.28.92l-2.68-.8s.4-.61.27-.92a.73.73,0,0,0-1-.29c-.28.21-.28.92-.28.92L.28,27A24.54,24.54,0,0,1,0,24.6c.27-.8.75-1.1,1.58-2C3.24,21,3.12,20.35,3.85,19.83c1.71-1.24,3.82,1,7.58,1.6a11.58,11.58,0,0,0,3.1.05c.18.65.39,1.3.63,1.94.1.24.2.47.29.7s.89.17.86-.21,0-.51-.08-.76c-.09-.64-.2-1.28-.34-1.91.41-.09.8-.19,1.18-.3.18.62.38,1.24.62,1.85.09.24.19.47.29.71s.88.16.85-.22,0-.5-.08-.75c-.09-.67-.21-1.34-.35-2,.45-.15.88-.3,1.28-.42.19.71.42,1.41.68,2.1.09.23.18.47.28.7s.89.17.86-.21-.05-.51-.08-.76a19.56,19.56,0,0,0-.4-2.16,2.91,2.91,0,0,1,2.53.55c1,.87.77,1.87,2.12,2.63,2,1.11,4-.26,4.55.61s-1,2.18-1.88,6C28.3,29.73,28.24,30,28.12,30.58Z"/></g></g></svg>