<svg xmlns="http://www.w3.org/2000/svg" viewBox="0 0 86.4 121.56"><defs><style>.cls-1{fill:#fff;}</style></defs><g id="Calque_2" data-name="Calque 2"><g id="Calque_1-2" data-name="Calque 1"><ellipse class="cls-1" cx="18.6" cy="102.21" rx="18.6" ry="19.35"/><circle class="cls-1" cx="18.6" cy="64.03" r="12.25"/><path class="cls-1" d="M45.46,43.58h0a.05.05,0,0,1,0,0Z"/><path class="cls-1" d="M84.55,50.56A44.54,44.54,0,0,1,59,57.07,31.82,31.82,0,0,1,47,54.2,23.07,23.07,0,0,1,36.23,42.55c-1.74.22-3.48.46-5.21.72-2,.3-4-.48-4.62-2.62C25.91,38.86,27,36.34,29,36c1.8-.27,3.61-.53,5.41-.76a23.78,23.78,0,0,1-.1-3.16c-1.68.07-3.37.13-5,.17a3.75,3.75,0,0,1,0-7.5q3.13-.08,6.27-.22c4.22-13.73,18-22,31.58-24.49A3.84,3.84,0,0,1,71.75,2.7c.5,1.83-.63,4.24-2.62,4.61-7.1,1.32-13.89,3.86-19.06,8.5a25.87,25.87,0,0,0-6.3,8.25q6.45-.48,12.87-1.26c2.09-.25,3.67,1.92,3.75,3.75.1,2.2-1.81,3.52-3.75,3.75q-7.41.9-14.85,1.4c0,.16,0,.32,0,.48a20,20,0,0,0,.06,2.19v0c5.42-.55,10.86-.93,16.32-1.11a3.75,3.75,0,0,1,0,7.5q-7,.24-14,.87c.26.46.55.92.86,1.36,0,0,.25.32.36.48h0a.05.05,0,0,0,0,0h0v0h0c.18.22.36.43.55.64a14.35,14.35,0,0,0,6.68,4.2,28.11,28.11,0,0,0,9.79,1.17,37.32,37.32,0,0,0,18.26-5.54,3.75,3.75,0,1,1,3.79,6.48Z"/><path class="cls-1" d="M53.9,81.84c-9,7-17,10.31-14.32,13.9,2.5,3.39,12-.3,21-7.32S75.08,73.65,72,69.69,62.93,74.82,53.9,81.84Z"/><path class="cls-1" d="M39.55,76.13c-6,4.41-9.22,9.16-11.52,6.14-2.18-2.86,1.47-8.62,7.48-13s12.16-6,14.7-2.53S45.55,71.73,39.55,76.13Z"/></g></g></svg>