<svg xmlns="http://www.w3.org/2000/svg" viewBox="0 0 18.45 70.67"><defs><style>.cls-1{fill:#64666A;}</style></defs><g id="Calque_2" data-name="Calque 2"><g id="Calque_1-2" data-name="Calque 1"><path class="cls-1" d="M11.6,68.93a2.34,2.34,0,0,1-4.53,0c-.22-.85-.4-1.69-.57-2.54a46.33,46.33,0,0,1-.78-8.52,45.43,45.43,0,0,1,.77-8.51c.17-.86.36-1.72.58-2.58a2.34,2.34,0,0,1,4.52,0c.23.86.42,1.72.59,2.58A46.28,46.28,0,0,1,13,57.87a47.21,47.21,0,0,1-.78,8.52C12,67.24,11.81,68.08,11.6,68.93Z"/><path class="cls-1" d="M10.83,9.11A2.08,2.08,0,0,1,7.29,9a8,8,0,0,1-.5-1,7.61,7.61,0,0,1,.21-6,10.3,10.3,0,0,1,.58-1,2.1,2.1,0,0,1,3.55.13,9.86,9.86,0,0,1,.5,1,7.62,7.62,0,0,1,.52,3,7.63,7.63,0,0,1-.75,3A8.89,8.89,0,0,1,10.83,9.11Z"/><path class="cls-1" d="M8.57,14.61a2.09,2.09,0,0,1-2.28,2.72,7.51,7.51,0,0,1-1.11-.24,7.69,7.69,0,0,1-2.73-1.45A7.57,7.57,0,0,1,.54,13.22a8.53,8.53,0,0,1-.43-1.07A2.09,2.09,0,0,1,2.39,9.43a9.81,9.81,0,0,1,1.13.24,7.45,7.45,0,0,1,2.71,1.46,7.59,7.59,0,0,1,1.91,2.43A8.23,8.23,0,0,1,8.57,14.61Z"/><path class="cls-1" d="M8.57,23.13a2.09,2.09,0,0,1-2.28,2.72,9,9,0,0,1-1.11-.25A7.5,7.5,0,0,1,.54,21.73a8.53,8.53,0,0,1-.43-1.07,2.09,2.09,0,0,1,2.28-2.72,9.81,9.81,0,0,1,1.13.25,7.29,7.29,0,0,1,2.71,1.45,7.59,7.59,0,0,1,1.91,2.43A8.38,8.38,0,0,1,8.57,23.13Z"/><path class="cls-1" d="M8.57,31.64a2.09,2.09,0,0,1-2.28,2.72c-.39-.06-.76-.15-1.11-.24a7.71,7.71,0,0,1-2.73-1.46A7.57,7.57,0,0,1,.54,30.24a8.53,8.53,0,0,1-.43-1.07,2.09,2.09,0,0,1,2.28-2.72,9.81,9.81,0,0,1,1.13.25,7.31,7.31,0,0,1,2.71,1.46,7.54,7.54,0,0,1,1.91,2.42A8.38,8.38,0,0,1,8.57,31.64Z"/><path class="cls-1" d="M8.57,40.55a2.09,2.09,0,0,1-2.28,2.72c-.39-.06-.76-.15-1.11-.24a7.71,7.71,0,0,1-2.73-1.46A7.57,7.57,0,0,1,.54,39.15a8.53,8.53,0,0,1-.43-1.07,2.09,2.09,0,0,1,2.28-2.72,9.81,9.81,0,0,1,1.13.25,7.29,7.29,0,0,1,2.71,1.45,7.59,7.59,0,0,1,1.91,2.43A8.38,8.38,0,0,1,8.57,40.55Z"/><path class="cls-1" d="M9.88,14.7a2.09,2.09,0,0,0,2.28,2.72,9,9,0,0,0,1.11-.25,7.5,7.5,0,0,0,4.64-3.87,8.53,8.53,0,0,0,.43-1.07,2.09,2.09,0,0,0-2.28-2.72,9.81,9.81,0,0,0-1.13.25,7.37,7.37,0,0,0-2.71,1.45,7.73,7.73,0,0,0-1.91,2.43A10.19,10.19,0,0,0,9.88,14.7Z"/><path class="cls-1" d="M9.88,23.21a2.09,2.09,0,0,0,2.28,2.72c.39-.06.76-.15,1.11-.24A7.71,7.71,0,0,0,16,24.23a7.57,7.57,0,0,0,1.91-2.42,8.53,8.53,0,0,0,.43-1.07A2.09,2.09,0,0,0,16.06,18a9.81,9.81,0,0,0-1.13.25,7.39,7.39,0,0,0-2.71,1.46,7.68,7.68,0,0,0-1.91,2.42A10.19,10.19,0,0,0,9.88,23.21Z"/><path class="cls-1" d="M9.88,31.72a2.09,2.09,0,0,0,2.28,2.72,9,9,0,0,0,1.11-.24A7.71,7.71,0,0,0,16,32.74a7.57,7.57,0,0,0,1.91-2.42,8,8,0,0,0,.43-1.07,2.09,2.09,0,0,0-2.28-2.72,9.81,9.81,0,0,0-1.13.25,7.39,7.39,0,0,0-2.71,1.46,7.8,7.8,0,0,0-1.91,2.42A11.17,11.17,0,0,0,9.88,31.72Z"/><path class="cls-1" d="M9.88,40.63a2.09,2.09,0,0,0,2.28,2.72c.39-.06.76-.15,1.11-.24A7.71,7.71,0,0,0,16,41.65a7.57,7.57,0,0,0,1.91-2.42,8.53,8.53,0,0,0,.43-1.07,2.09,2.09,0,0,0-2.28-2.72,9.81,9.81,0,0,0-1.13.25,7.39,7.39,0,0,0-2.71,1.46,7.8,7.8,0,0,0-1.91,2.42A10.19,10.19,0,0,0,9.88,40.63Z"/></g></g></svg>