<svg xmlns="http://www.w3.org/2000/svg" viewBox="0 0 37.2 69.78"><defs><style>.cls-1{fill:#64666A;}</style></defs><g id="Calque_2" data-name="Calque 2"><g id="Calque_1-2" data-name="Calque 1"><path class="cls-1" d="M18.6,24.5A12.25,12.25,0,1,0,6.35,12.25,12.26,12.26,0,0,0,18.6,24.5Z"/><path class="cls-1" d="M18.6,31.09C8.33,31.09,0,39.75,0,50.43S8.33,69.78,18.6,69.78s18.6-8.66,18.6-19.35S28.87,31.09,18.6,31.09Zm-2.51,5.07h5a1.65,1.65,0,0,1,1.47,2.47l-1.26,2.11-1.25,2.11a1.73,1.73,0,0,1-2.94,0l-1.25-2.11-1.26-2.11A1.65,1.65,0,0,1,16.09,36.16Zm6.72,17.91a1.64,1.64,0,0,1-.23.84L21.32,57l-1.25,2.11a1.73,1.73,0,0,1-2.94,0L15.87,57l-1.25-2.11a1.33,1.33,0,0,1-.23-.84,7.28,7.28,0,0,1,.25-.82h0l1.86-6.12.06-.2a2.13,2.13,0,0,1,4.09,0l.06.2,1.85,6.12h0a7,7,0,0,1,.25.81Z"/></g></g></svg>