<svg xmlns="http://www.w3.org/2000/svg" viewBox="0 0 78.39 69.78"><defs><style>.cls-1{fill:#64666A;}</style></defs><g id="Calque_2" data-name="Calque 2"><g id="Calque_2-2" data-name="Calque 2"><path class="cls-1" d="M53.51,69.69c-2.36,0-4.73-.07-7.09,0-1.51.06-2.09-.45-2.12-2Q44,50.91,43.5,34.09c0-1.43.5-2,1.89-1.92h.27c3.17.06,7.19-1,9.27.53,1.86,1.38,1.64,5.63,2.24,8.64,1.74,8.64,3.36,17.31,5.19,25.94.43,2,0,2.57-2,2.45-2.27-.13-4.55,0-6.83,0Z"/><path class="cls-1" d="M39.2,21.93c12.11,0,24.22.07,36.32-.06,2.39,0,2.83.83,2.87,3s-.57,3.27-2.89,2.9a3.37,3.37,0,0,0-.55,0c-5.15,0-5.37.23-5.34,5.38a12.34,12.34,0,0,1,0,1.36c-.13,1.21.64,3-1.71,2.88-1.84-.08-3.78.75-4.42-2.41-1.64-8.16-.37-7.22-9-7.24-11.29,0-22.57.07-33.86-.05-2.9,0-4.79.56-4.94,3.86-.06,1.15-.8,2.3-.72,3.41.22,3-2,2.82-3.78,3-2.54.19-2.66-1.55-2.5-3.42,0-.27,0-.54,0-.82.12-5.94-.18-6.2-5.8-5.86C.48,27.94,0,27,0,24.83s.54-3,2.88-2.95C15,22,27.1,21.93,39.2,21.93Z"/><path class="cls-1" d="M24.65,69.73c-2.36,0-4.73,0-7.1,0-1.39,0-2-.29-1.67-1.86q3.48-17,6.83-34c.24-1.27.73-1.65,1.94-1.63,2.82.05,5.65,0,8.47,0,1.29,0,1.78.47,1.74,1.76Q34.39,50.83,34,67.61c0,1.58-.54,2.27-2.25,2.16C29.39,69.62,27,69.73,24.65,69.73Z"/><path class="cls-1" d="M42.55,8.29c0-1.18,0-2.36,0-3.53C42.5.1,43.27-.49,48,.29c1.07.18,1.31.78,1.47,1.61.89,4.58,1.76,9.16,2.7,13.73.35,1.7-.22,2.14-1.93,2.17-7.31.11-7.31.17-7.57-7.06,0-.82,0-1.63,0-2.45Z"/><path class="cls-1" d="M35.8,9c-.11,2.27-.3,4.53-.31,6.8,0,1.36-.42,1.87-1.87,1.95-7.71.46-7.72.5-6.39-6.94.46-2.59,1.22-5.15,1.49-7.75C29,.74,30,.12,32.23.25c4.1.25,3.61-.61,3.64,3.61,0,1.72,0,3.45,0,5.18Z"/></g></g></svg>